<mxfile host="Electron" agent="Mozilla/5.0 (Windows NT 10.0; Win64; x64) AppleWebKit/537.36 (KHTML, like Gecko) draw.io/24.7.17 Chrome/128.0.6613.36 Electron/32.0.1 Safari/537.36" version="24.7.17">
  <diagram id="3MsDFhCpPPug5Z4EoW6w" name="PÃ¡gina-1">
    <mxGraphModel dx="1669" dy="478" grid="0" gridSize="10" guides="0" tooltips="1" connect="1" arrows="1" fold="1" page="1" pageScale="1" pageWidth="850" pageHeight="1100" background="#FCFCFC" math="0" shadow="1">
      <root>
        <mxCell id="0" />
        <mxCell id="1" parent="0" />
        <mxCell id="gIX4ZdvpRPkXEoyVLq0K-1" value="Customer" style="shape=table;startSize=30;container=1;collapsible=1;childLayout=tableLayout;fixedRows=1;rowLines=0;fontStyle=1;align=center;resizeLast=1;html=1;fontFamily=Hack Nerd Font;labelBackgroundColor=none;rounded=1;arcSize=0;fillColor=#5D7F99;strokeColor=#D0CEE2;fontColor=#1A1A1A;" parent="1" vertex="1">
          <mxGeometry x="-723" y="475" width="300" height="330" as="geometry">
            <mxRectangle x="-723" y="475" width="93" height="30" as="alternateBounds" />
          </mxGeometry>
        </mxCell>
        <mxCell id="gIX4ZdvpRPkXEoyVLq0K-2" value="" style="shape=tableRow;horizontal=0;startSize=0;swimlaneHead=0;swimlaneBody=0;fillColor=none;collapsible=0;dropTarget=0;points=[[0,0.5],[1,0.5]];portConstraint=eastwest;top=0;left=0;right=0;bottom=1;fontFamily=Hack Nerd Font;labelBackgroundColor=none;rounded=1;strokeColor=#D0CEE2;fontColor=#1A1A1A;" parent="gIX4ZdvpRPkXEoyVLq0K-1" vertex="1">
          <mxGeometry y="30" width="300" height="30" as="geometry" />
        </mxCell>
        <mxCell id="gIX4ZdvpRPkXEoyVLq0K-3" value="&lt;u&gt;PK&lt;/u&gt;" style="shape=partialRectangle;connectable=0;fillColor=none;top=0;left=0;bottom=0;right=0;fontStyle=1;overflow=hidden;whiteSpace=wrap;html=1;fontFamily=Hack Nerd Font;labelBackgroundColor=none;rounded=1;strokeColor=#D0CEE2;fontColor=#1A1A1A;" parent="gIX4ZdvpRPkXEoyVLq0K-2" vertex="1">
          <mxGeometry width="80" height="30" as="geometry">
            <mxRectangle width="80" height="30" as="alternateBounds" />
          </mxGeometry>
        </mxCell>
        <mxCell id="gIX4ZdvpRPkXEoyVLq0K-4" value="Id" style="shape=partialRectangle;connectable=0;fillColor=none;top=0;left=0;bottom=0;right=0;align=left;spacingLeft=6;fontStyle=5;overflow=hidden;whiteSpace=wrap;html=1;fontFamily=Hack Nerd Font;labelBackgroundColor=none;rounded=1;strokeColor=#D0CEE2;fontColor=#1A1A1A;" parent="gIX4ZdvpRPkXEoyVLq0K-2" vertex="1">
          <mxGeometry x="80" width="220" height="30" as="geometry">
            <mxRectangle width="220" height="30" as="alternateBounds" />
          </mxGeometry>
        </mxCell>
        <mxCell id="pULcvPwTSCyIzD-peDKf-18" style="shape=tableRow;horizontal=0;startSize=0;swimlaneHead=0;swimlaneBody=0;fillColor=none;collapsible=0;dropTarget=0;points=[[0,0.5],[1,0.5]];portConstraint=eastwest;top=0;left=0;right=0;bottom=1;fontFamily=Hack Nerd Font;labelBackgroundColor=none;rounded=1;strokeColor=#D0CEE2;fontColor=#1A1A1A;" parent="gIX4ZdvpRPkXEoyVLq0K-1" vertex="1">
          <mxGeometry y="60" width="300" height="30" as="geometry" />
        </mxCell>
        <mxCell id="pULcvPwTSCyIzD-peDKf-19" value="&lt;b&gt;&lt;u&gt;FK&lt;/u&gt;&lt;/b&gt;" style="shape=partialRectangle;connectable=0;fillColor=none;top=0;left=0;bottom=0;right=0;fontStyle=1;overflow=hidden;whiteSpace=wrap;html=1;fontFamily=Hack Nerd Font;labelBackgroundColor=none;rounded=1;strokeColor=#D0CEE2;fontColor=#1A1A1A;" parent="pULcvPwTSCyIzD-peDKf-18" vertex="1">
          <mxGeometry width="80" height="30" as="geometry">
            <mxRectangle width="80" height="30" as="alternateBounds" />
          </mxGeometry>
        </mxCell>
        <mxCell id="pULcvPwTSCyIzD-peDKf-20" value="ApprovedLoan" style="shape=partialRectangle;connectable=0;fillColor=none;top=0;left=0;bottom=0;right=0;align=left;spacingLeft=6;fontStyle=5;overflow=hidden;whiteSpace=wrap;html=1;fontFamily=Hack Nerd Font;labelBackgroundColor=none;rounded=1;strokeColor=#D0CEE2;fontColor=#1A1A1A;" parent="pULcvPwTSCyIzD-peDKf-18" vertex="1">
          <mxGeometry x="80" width="220" height="30" as="geometry">
            <mxRectangle width="220" height="30" as="alternateBounds" />
          </mxGeometry>
        </mxCell>
        <mxCell id="pULcvPwTSCyIzD-peDKf-15" style="shape=tableRow;horizontal=0;startSize=0;swimlaneHead=0;swimlaneBody=0;fillColor=none;collapsible=0;dropTarget=0;points=[[0,0.5],[1,0.5]];portConstraint=eastwest;top=0;left=0;right=0;bottom=1;fontFamily=Hack Nerd Font;labelBackgroundColor=none;rounded=1;strokeColor=#D0CEE2;fontColor=#1A1A1A;" parent="gIX4ZdvpRPkXEoyVLq0K-1" vertex="1">
          <mxGeometry y="90" width="300" height="30" as="geometry" />
        </mxCell>
        <mxCell id="pULcvPwTSCyIzD-peDKf-16" value="&lt;u&gt;FK&lt;/u&gt;" style="shape=partialRectangle;connectable=0;fillColor=none;top=0;left=0;bottom=0;right=0;fontStyle=1;overflow=hidden;whiteSpace=wrap;html=1;fontFamily=Hack Nerd Font;labelBackgroundColor=none;rounded=1;strokeColor=#D0CEE2;fontColor=#1A1A1A;" parent="pULcvPwTSCyIzD-peDKf-15" vertex="1">
          <mxGeometry width="80" height="30" as="geometry">
            <mxRectangle width="80" height="30" as="alternateBounds" />
          </mxGeometry>
        </mxCell>
        <mxCell id="pULcvPwTSCyIzD-peDKf-17" value="LoanRequest" style="shape=partialRectangle;connectable=0;fillColor=none;top=0;left=0;bottom=0;right=0;align=left;spacingLeft=6;fontStyle=5;overflow=hidden;whiteSpace=wrap;html=1;fontFamily=Hack Nerd Font;labelBackgroundColor=none;rounded=1;strokeColor=#D0CEE2;fontColor=#1A1A1A;" parent="pULcvPwTSCyIzD-peDKf-15" vertex="1">
          <mxGeometry x="80" width="220" height="30" as="geometry">
            <mxRectangle width="220" height="30" as="alternateBounds" />
          </mxGeometry>
        </mxCell>
        <mxCell id="gIX4ZdvpRPkXEoyVLq0K-5" value="" style="shape=tableRow;horizontal=0;startSize=0;swimlaneHead=0;swimlaneBody=0;fillColor=none;collapsible=0;dropTarget=0;points=[[0,0.5],[1,0.5]];portConstraint=eastwest;top=0;left=0;right=0;bottom=0;fontFamily=Hack Nerd Font;labelBackgroundColor=none;rounded=1;strokeColor=#D0CEE2;fontColor=#1A1A1A;" parent="gIX4ZdvpRPkXEoyVLq0K-1" vertex="1">
          <mxGeometry y="120" width="300" height="30" as="geometry" />
        </mxCell>
        <mxCell id="gIX4ZdvpRPkXEoyVLq0K-6" value="string" style="shape=partialRectangle;connectable=0;fillColor=none;top=0;left=0;bottom=0;right=0;editable=1;overflow=hidden;whiteSpace=wrap;html=1;fontFamily=Hack Nerd Font;labelBackgroundColor=none;rounded=1;strokeColor=#D0CEE2;fontColor=#1A1A1A;" parent="gIX4ZdvpRPkXEoyVLq0K-5" vertex="1">
          <mxGeometry width="80" height="30" as="geometry">
            <mxRectangle width="80" height="30" as="alternateBounds" />
          </mxGeometry>
        </mxCell>
        <mxCell id="gIX4ZdvpRPkXEoyVLq0K-7" value="FirstName" style="shape=partialRectangle;connectable=0;fillColor=none;top=0;left=0;bottom=0;right=0;align=left;spacingLeft=6;overflow=hidden;whiteSpace=wrap;html=1;fontFamily=Hack Nerd Font;labelBackgroundColor=none;rounded=1;strokeColor=#D0CEE2;fontColor=#1A1A1A;" parent="gIX4ZdvpRPkXEoyVLq0K-5" vertex="1">
          <mxGeometry x="80" width="220" height="30" as="geometry">
            <mxRectangle width="220" height="30" as="alternateBounds" />
          </mxGeometry>
        </mxCell>
        <mxCell id="gIX4ZdvpRPkXEoyVLq0K-8" value="" style="shape=tableRow;horizontal=0;startSize=0;swimlaneHead=0;swimlaneBody=0;fillColor=none;collapsible=0;dropTarget=0;points=[[0,0.5],[1,0.5]];portConstraint=eastwest;top=0;left=0;right=0;bottom=0;fontFamily=Hack Nerd Font;labelBackgroundColor=none;rounded=1;strokeColor=#D0CEE2;fontColor=#1A1A1A;" parent="gIX4ZdvpRPkXEoyVLq0K-1" vertex="1">
          <mxGeometry y="150" width="300" height="30" as="geometry" />
        </mxCell>
        <mxCell id="gIX4ZdvpRPkXEoyVLq0K-9" value="string" style="shape=partialRectangle;connectable=0;fillColor=none;top=0;left=0;bottom=0;right=0;editable=1;overflow=hidden;whiteSpace=wrap;html=1;fontFamily=Hack Nerd Font;labelBackgroundColor=none;rounded=1;strokeColor=#D0CEE2;fontColor=#1A1A1A;" parent="gIX4ZdvpRPkXEoyVLq0K-8" vertex="1">
          <mxGeometry width="80" height="30" as="geometry">
            <mxRectangle width="80" height="30" as="alternateBounds" />
          </mxGeometry>
        </mxCell>
        <mxCell id="gIX4ZdvpRPkXEoyVLq0K-10" value="LastName" style="shape=partialRectangle;connectable=0;fillColor=none;top=0;left=0;bottom=0;right=0;align=left;spacingLeft=6;overflow=hidden;whiteSpace=wrap;html=1;fontFamily=Hack Nerd Font;labelBackgroundColor=none;rounded=1;strokeColor=#D0CEE2;fontColor=#1A1A1A;" parent="gIX4ZdvpRPkXEoyVLq0K-8" vertex="1">
          <mxGeometry x="80" width="220" height="30" as="geometry">
            <mxRectangle width="220" height="30" as="alternateBounds" />
          </mxGeometry>
        </mxCell>
        <mxCell id="gIX4ZdvpRPkXEoyVLq0K-11" value="" style="shape=tableRow;horizontal=0;startSize=0;swimlaneHead=0;swimlaneBody=0;fillColor=none;collapsible=0;dropTarget=0;points=[[0,0.5],[1,0.5]];portConstraint=eastwest;top=0;left=0;right=0;bottom=0;fontFamily=Hack Nerd Font;labelBackgroundColor=none;rounded=1;strokeColor=#D0CEE2;fontColor=#1A1A1A;" parent="gIX4ZdvpRPkXEoyVLq0K-1" vertex="1">
          <mxGeometry y="180" width="300" height="30" as="geometry" />
        </mxCell>
        <mxCell id="gIX4ZdvpRPkXEoyVLq0K-12" value="int" style="shape=partialRectangle;connectable=0;fillColor=none;top=0;left=0;bottom=0;right=0;editable=1;overflow=hidden;whiteSpace=wrap;html=1;fontFamily=Hack Nerd Font;labelBackgroundColor=none;rounded=1;strokeColor=#D0CEE2;fontColor=#1A1A1A;" parent="gIX4ZdvpRPkXEoyVLq0K-11" vertex="1">
          <mxGeometry width="80" height="30" as="geometry">
            <mxRectangle width="80" height="30" as="alternateBounds" />
          </mxGeometry>
        </mxCell>
        <mxCell id="gIX4ZdvpRPkXEoyVLq0K-13" value="Cid (Unique)" style="shape=partialRectangle;connectable=0;fillColor=none;top=0;left=0;bottom=0;right=0;align=left;spacingLeft=6;overflow=hidden;whiteSpace=wrap;html=1;fontFamily=Hack Nerd Font;labelBackgroundColor=none;rounded=1;strokeColor=#D0CEE2;fontColor=#1A1A1A;" parent="gIX4ZdvpRPkXEoyVLq0K-11" vertex="1">
          <mxGeometry x="80" width="220" height="30" as="geometry">
            <mxRectangle width="220" height="30" as="alternateBounds" />
          </mxGeometry>
        </mxCell>
        <mxCell id="gIX4ZdvpRPkXEoyVLq0K-20" style="shape=tableRow;horizontal=0;startSize=0;swimlaneHead=0;swimlaneBody=0;fillColor=none;collapsible=0;dropTarget=0;points=[[0,0.5],[1,0.5]];portConstraint=eastwest;top=0;left=0;right=0;bottom=0;fontFamily=Hack Nerd Font;labelBackgroundColor=none;rounded=1;strokeColor=#D0CEE2;fontColor=#1A1A1A;" parent="gIX4ZdvpRPkXEoyVLq0K-1" vertex="1">
          <mxGeometry y="210" width="300" height="30" as="geometry" />
        </mxCell>
        <mxCell id="gIX4ZdvpRPkXEoyVLq0K-21" value="string" style="shape=partialRectangle;connectable=0;fillColor=none;top=0;left=0;bottom=0;right=0;editable=1;overflow=hidden;whiteSpace=wrap;html=1;fontFamily=Hack Nerd Font;labelBackgroundColor=none;rounded=1;strokeColor=#D0CEE2;fontColor=#1A1A1A;" parent="gIX4ZdvpRPkXEoyVLq0K-20" vertex="1">
          <mxGeometry width="80" height="30" as="geometry">
            <mxRectangle width="80" height="30" as="alternateBounds" />
          </mxGeometry>
        </mxCell>
        <mxCell id="gIX4ZdvpRPkXEoyVLq0K-22" value="Email" style="shape=partialRectangle;connectable=0;fillColor=none;top=0;left=0;bottom=0;right=0;align=left;spacingLeft=6;overflow=hidden;whiteSpace=wrap;html=1;fontFamily=Hack Nerd Font;labelBackgroundColor=none;rounded=1;strokeColor=#D0CEE2;fontColor=#1A1A1A;" parent="gIX4ZdvpRPkXEoyVLq0K-20" vertex="1">
          <mxGeometry x="80" width="220" height="30" as="geometry">
            <mxRectangle width="220" height="30" as="alternateBounds" />
          </mxGeometry>
        </mxCell>
        <mxCell id="gIX4ZdvpRPkXEoyVLq0K-17" style="shape=tableRow;horizontal=0;startSize=0;swimlaneHead=0;swimlaneBody=0;fillColor=none;collapsible=0;dropTarget=0;points=[[0,0.5],[1,0.5]];portConstraint=eastwest;top=0;left=0;right=0;bottom=0;fontFamily=Hack Nerd Font;labelBackgroundColor=none;rounded=1;strokeColor=#D0CEE2;fontColor=#1A1A1A;" parent="gIX4ZdvpRPkXEoyVLq0K-1" vertex="1">
          <mxGeometry y="240" width="300" height="30" as="geometry" />
        </mxCell>
        <mxCell id="gIX4ZdvpRPkXEoyVLq0K-18" value="string" style="shape=partialRectangle;connectable=0;fillColor=none;top=0;left=0;bottom=0;right=0;editable=1;overflow=hidden;whiteSpace=wrap;html=1;fontFamily=Hack Nerd Font;labelBackgroundColor=none;rounded=1;strokeColor=#D0CEE2;fontColor=#1A1A1A;" parent="gIX4ZdvpRPkXEoyVLq0K-17" vertex="1">
          <mxGeometry width="80" height="30" as="geometry">
            <mxRectangle width="80" height="30" as="alternateBounds" />
          </mxGeometry>
        </mxCell>
        <mxCell id="gIX4ZdvpRPkXEoyVLq0K-19" value="Phone" style="shape=partialRectangle;connectable=0;fillColor=none;top=0;left=0;bottom=0;right=0;align=left;spacingLeft=6;overflow=hidden;whiteSpace=wrap;html=1;fontFamily=Hack Nerd Font;labelBackgroundColor=none;rounded=1;strokeColor=#D0CEE2;fontColor=#1A1A1A;" parent="gIX4ZdvpRPkXEoyVLq0K-17" vertex="1">
          <mxGeometry x="80" width="220" height="30" as="geometry">
            <mxRectangle width="220" height="30" as="alternateBounds" />
          </mxGeometry>
        </mxCell>
        <mxCell id="gIX4ZdvpRPkXEoyVLq0K-14" style="shape=tableRow;horizontal=0;startSize=0;swimlaneHead=0;swimlaneBody=0;fillColor=none;collapsible=0;dropTarget=0;points=[[0,0.5],[1,0.5]];portConstraint=eastwest;top=0;left=0;right=0;bottom=0;fontFamily=Hack Nerd Font;labelBackgroundColor=none;rounded=1;strokeColor=#D0CEE2;fontColor=#1A1A1A;" parent="gIX4ZdvpRPkXEoyVLq0K-1" vertex="1">
          <mxGeometry y="270" width="300" height="30" as="geometry" />
        </mxCell>
        <mxCell id="gIX4ZdvpRPkXEoyVLq0K-15" value="string" style="shape=partialRectangle;connectable=0;fillColor=none;top=0;left=0;bottom=0;right=0;editable=1;overflow=hidden;whiteSpace=wrap;html=1;fontFamily=Hack Nerd Font;labelBackgroundColor=none;rounded=1;strokeColor=#D0CEE2;fontColor=#1A1A1A;" parent="gIX4ZdvpRPkXEoyVLq0K-14" vertex="1">
          <mxGeometry width="80" height="30" as="geometry">
            <mxRectangle width="80" height="30" as="alternateBounds" />
          </mxGeometry>
        </mxCell>
        <mxCell id="gIX4ZdvpRPkXEoyVLq0K-16" value="Address" style="shape=partialRectangle;connectable=0;fillColor=none;top=0;left=0;bottom=0;right=0;align=left;spacingLeft=6;overflow=hidden;whiteSpace=wrap;html=1;fontFamily=Hack Nerd Font;labelBackgroundColor=none;rounded=1;strokeColor=#D0CEE2;fontColor=#1A1A1A;" parent="gIX4ZdvpRPkXEoyVLq0K-14" vertex="1">
          <mxGeometry x="80" width="220" height="30" as="geometry">
            <mxRectangle width="220" height="30" as="alternateBounds" />
          </mxGeometry>
        </mxCell>
        <mxCell id="ypKWcNt-lFt8h2dKR2f8-5" style="shape=tableRow;horizontal=0;startSize=0;swimlaneHead=0;swimlaneBody=0;fillColor=none;collapsible=0;dropTarget=0;points=[[0,0.5],[1,0.5]];portConstraint=eastwest;top=0;left=0;right=0;bottom=0;fontFamily=Hack Nerd Font;labelBackgroundColor=none;rounded=1;strokeColor=#D0CEE2;fontColor=#1A1A1A;" vertex="1" parent="gIX4ZdvpRPkXEoyVLq0K-1">
          <mxGeometry y="300" width="300" height="30" as="geometry" />
        </mxCell>
        <mxCell id="ypKWcNt-lFt8h2dKR2f8-6" value="string" style="shape=partialRectangle;connectable=0;fillColor=none;top=0;left=0;bottom=0;right=0;editable=1;overflow=hidden;whiteSpace=wrap;html=1;fontFamily=Hack Nerd Font;labelBackgroundColor=none;rounded=1;strokeColor=#D0CEE2;fontColor=#1A1A1A;" vertex="1" parent="ypKWcNt-lFt8h2dKR2f8-5">
          <mxGeometry width="80" height="30" as="geometry">
            <mxRectangle width="80" height="30" as="alternateBounds" />
          </mxGeometry>
        </mxCell>
        <mxCell id="ypKWcNt-lFt8h2dKR2f8-7" value="Rol" style="shape=partialRectangle;connectable=0;fillColor=none;top=0;left=0;bottom=0;right=0;align=left;spacingLeft=6;overflow=hidden;whiteSpace=wrap;html=1;fontFamily=Hack Nerd Font;labelBackgroundColor=none;rounded=1;strokeColor=#D0CEE2;fontColor=#1A1A1A;" vertex="1" parent="ypKWcNt-lFt8h2dKR2f8-5">
          <mxGeometry x="80" width="220" height="30" as="geometry">
            <mxRectangle width="220" height="30" as="alternateBounds" />
          </mxGeometry>
        </mxCell>
        <mxCell id="gIX4ZdvpRPkXEoyVLq0K-26" value="TermInterestRate" style="shape=table;startSize=30;container=1;collapsible=1;childLayout=tableLayout;fixedRows=1;rowLines=0;fontStyle=1;align=center;resizeLast=1;html=1;fontFamily=Hack Nerd Font;labelBackgroundColor=none;rounded=1;arcSize=0;fillColor=#5D7F99;strokeColor=#D0CEE2;fontColor=#1A1A1A;" parent="1" vertex="1">
          <mxGeometry x="110" y="367" width="300" height="150" as="geometry" />
        </mxCell>
        <mxCell id="gIX4ZdvpRPkXEoyVLq0K-27" value="" style="shape=tableRow;horizontal=0;startSize=0;swimlaneHead=0;swimlaneBody=0;fillColor=none;collapsible=0;dropTarget=0;points=[[0,0.5],[1,0.5]];portConstraint=eastwest;top=0;left=0;right=0;bottom=1;fontFamily=Hack Nerd Font;labelBackgroundColor=none;rounded=1;strokeColor=#D0CEE2;fontColor=#1A1A1A;" parent="gIX4ZdvpRPkXEoyVLq0K-26" vertex="1">
          <mxGeometry y="30" width="300" height="30" as="geometry" />
        </mxCell>
        <mxCell id="gIX4ZdvpRPkXEoyVLq0K-28" value="&lt;u&gt;PK&lt;/u&gt;" style="shape=partialRectangle;connectable=0;fillColor=none;top=0;left=0;bottom=0;right=0;fontStyle=1;overflow=hidden;whiteSpace=wrap;html=1;fontFamily=Hack Nerd Font;labelBackgroundColor=none;rounded=1;strokeColor=#D0CEE2;fontColor=#1A1A1A;" parent="gIX4ZdvpRPkXEoyVLq0K-27" vertex="1">
          <mxGeometry width="80" height="30" as="geometry">
            <mxRectangle width="80" height="30" as="alternateBounds" />
          </mxGeometry>
        </mxCell>
        <mxCell id="gIX4ZdvpRPkXEoyVLq0K-29" value="Id" style="shape=partialRectangle;connectable=0;fillColor=none;top=0;left=0;bottom=0;right=0;align=left;spacingLeft=6;fontStyle=5;overflow=hidden;whiteSpace=wrap;html=1;fontFamily=Hack Nerd Font;labelBackgroundColor=none;rounded=1;strokeColor=#D0CEE2;fontColor=#1A1A1A;" parent="gIX4ZdvpRPkXEoyVLq0K-27" vertex="1">
          <mxGeometry x="80" width="220" height="30" as="geometry">
            <mxRectangle width="220" height="30" as="alternateBounds" />
          </mxGeometry>
        </mxCell>
        <mxCell id="pULcvPwTSCyIzD-peDKf-36" style="shape=tableRow;horizontal=0;startSize=0;swimlaneHead=0;swimlaneBody=0;fillColor=none;collapsible=0;dropTarget=0;points=[[0,0.5],[1,0.5]];portConstraint=eastwest;top=0;left=0;right=0;bottom=1;fontFamily=Hack Nerd Font;labelBackgroundColor=none;rounded=1;strokeColor=#D0CEE2;fontColor=#1A1A1A;" parent="gIX4ZdvpRPkXEoyVLq0K-26" vertex="1">
          <mxGeometry y="60" width="300" height="30" as="geometry" />
        </mxCell>
        <mxCell id="pULcvPwTSCyIzD-peDKf-37" value="&lt;u&gt;FK&lt;/u&gt;" style="shape=partialRectangle;connectable=0;fillColor=none;top=0;left=0;bottom=0;right=0;fontStyle=1;overflow=hidden;whiteSpace=wrap;html=1;fontFamily=Hack Nerd Font;labelBackgroundColor=none;rounded=1;strokeColor=#D0CEE2;fontColor=#1A1A1A;" parent="pULcvPwTSCyIzD-peDKf-36" vertex="1">
          <mxGeometry width="80" height="30" as="geometry">
            <mxRectangle width="80" height="30" as="alternateBounds" />
          </mxGeometry>
        </mxCell>
        <mxCell id="pULcvPwTSCyIzD-peDKf-38" value="LoanRequests" style="shape=partialRectangle;connectable=0;fillColor=none;top=0;left=0;bottom=0;right=0;align=left;spacingLeft=6;fontStyle=5;overflow=hidden;whiteSpace=wrap;html=1;fontFamily=Hack Nerd Font;labelBackgroundColor=none;rounded=1;strokeColor=#D0CEE2;fontColor=#1A1A1A;" parent="pULcvPwTSCyIzD-peDKf-36" vertex="1">
          <mxGeometry x="80" width="220" height="30" as="geometry">
            <mxRectangle width="220" height="30" as="alternateBounds" />
          </mxGeometry>
        </mxCell>
        <mxCell id="gIX4ZdvpRPkXEoyVLq0K-30" value="" style="shape=tableRow;horizontal=0;startSize=0;swimlaneHead=0;swimlaneBody=0;fillColor=none;collapsible=0;dropTarget=0;points=[[0,0.5],[1,0.5]];portConstraint=eastwest;top=0;left=0;right=0;bottom=0;fontFamily=Hack Nerd Font;labelBackgroundColor=none;rounded=1;strokeColor=#D0CEE2;fontColor=#1A1A1A;" parent="gIX4ZdvpRPkXEoyVLq0K-26" vertex="1">
          <mxGeometry y="90" width="300" height="30" as="geometry" />
        </mxCell>
        <mxCell id="gIX4ZdvpRPkXEoyVLq0K-31" value="ushort" style="shape=partialRectangle;connectable=0;fillColor=none;top=0;left=0;bottom=0;right=0;editable=1;overflow=hidden;whiteSpace=wrap;html=1;fontFamily=Hack Nerd Font;labelBackgroundColor=none;rounded=1;strokeColor=#D0CEE2;fontColor=#1A1A1A;" parent="gIX4ZdvpRPkXEoyVLq0K-30" vertex="1">
          <mxGeometry width="80" height="30" as="geometry">
            <mxRectangle width="80" height="30" as="alternateBounds" />
          </mxGeometry>
        </mxCell>
        <mxCell id="gIX4ZdvpRPkXEoyVLq0K-32" value="Months" style="shape=partialRectangle;connectable=0;fillColor=none;top=0;left=0;bottom=0;right=0;align=left;spacingLeft=6;overflow=hidden;whiteSpace=wrap;html=1;fontFamily=Hack Nerd Font;labelBackgroundColor=none;rounded=1;strokeColor=#D0CEE2;fontColor=#1A1A1A;" parent="gIX4ZdvpRPkXEoyVLq0K-30" vertex="1">
          <mxGeometry x="80" width="220" height="30" as="geometry">
            <mxRectangle width="220" height="30" as="alternateBounds" />
          </mxGeometry>
        </mxCell>
        <mxCell id="gIX4ZdvpRPkXEoyVLq0K-194" style="shape=tableRow;horizontal=0;startSize=0;swimlaneHead=0;swimlaneBody=0;fillColor=none;collapsible=0;dropTarget=0;points=[[0,0.5],[1,0.5]];portConstraint=eastwest;top=0;left=0;right=0;bottom=0;fontFamily=Hack Nerd Font;labelBackgroundColor=none;rounded=1;strokeColor=#D0CEE2;fontColor=#1A1A1A;" parent="gIX4ZdvpRPkXEoyVLq0K-26" vertex="1">
          <mxGeometry y="120" width="300" height="30" as="geometry" />
        </mxCell>
        <mxCell id="gIX4ZdvpRPkXEoyVLq0K-195" value="float" style="shape=partialRectangle;connectable=0;fillColor=none;top=0;left=0;bottom=0;right=0;editable=1;overflow=hidden;whiteSpace=wrap;html=1;fontFamily=Hack Nerd Font;labelBackgroundColor=none;rounded=1;strokeColor=#D0CEE2;fontColor=#1A1A1A;" parent="gIX4ZdvpRPkXEoyVLq0K-194" vertex="1">
          <mxGeometry width="80" height="30" as="geometry">
            <mxRectangle width="80" height="30" as="alternateBounds" />
          </mxGeometry>
        </mxCell>
        <mxCell id="gIX4ZdvpRPkXEoyVLq0K-196" value="Interest" style="shape=partialRectangle;connectable=0;fillColor=none;top=0;left=0;bottom=0;right=0;align=left;spacingLeft=6;overflow=hidden;whiteSpace=wrap;html=1;fontFamily=Hack Nerd Font;labelBackgroundColor=none;rounded=1;strokeColor=#D0CEE2;fontColor=#1A1A1A;" parent="gIX4ZdvpRPkXEoyVLq0K-194" vertex="1">
          <mxGeometry x="80" width="220" height="30" as="geometry">
            <mxRectangle width="220" height="30" as="alternateBounds" />
          </mxGeometry>
        </mxCell>
        <mxCell id="gIX4ZdvpRPkXEoyVLq0K-61" value="InstallmentPayment" style="shape=table;startSize=30;container=1;collapsible=1;childLayout=tableLayout;fixedRows=1;rowLines=0;fontStyle=1;align=center;resizeLast=1;html=1;fontFamily=Hack Nerd Font;labelBackgroundColor=none;rounded=1;arcSize=0;fillColor=#5D7F99;strokeColor=#D0CEE2;fontColor=#1A1A1A;" parent="1" vertex="1">
          <mxGeometry x="-723" y="230" width="300" height="180" as="geometry" />
        </mxCell>
        <mxCell id="gIX4ZdvpRPkXEoyVLq0K-62" value="" style="shape=tableRow;horizontal=0;startSize=0;swimlaneHead=0;swimlaneBody=0;fillColor=none;collapsible=0;dropTarget=0;points=[[0,0.5],[1,0.5]];portConstraint=eastwest;top=0;left=0;right=0;bottom=1;fontFamily=Hack Nerd Font;labelBackgroundColor=none;rounded=1;strokeColor=#D0CEE2;fontColor=#1A1A1A;" parent="gIX4ZdvpRPkXEoyVLq0K-61" vertex="1">
          <mxGeometry y="30" width="300" height="30" as="geometry" />
        </mxCell>
        <mxCell id="gIX4ZdvpRPkXEoyVLq0K-63" value="&lt;u&gt;PK&lt;/u&gt;" style="shape=partialRectangle;connectable=0;fillColor=none;top=0;left=0;bottom=0;right=0;fontStyle=1;overflow=hidden;whiteSpace=wrap;html=1;fontFamily=Hack Nerd Font;labelBackgroundColor=none;rounded=1;strokeColor=#D0CEE2;fontColor=#1A1A1A;" parent="gIX4ZdvpRPkXEoyVLq0K-62" vertex="1">
          <mxGeometry width="80" height="30" as="geometry">
            <mxRectangle width="80" height="30" as="alternateBounds" />
          </mxGeometry>
        </mxCell>
        <mxCell id="gIX4ZdvpRPkXEoyVLq0K-64" value="Id" style="shape=partialRectangle;connectable=0;fillColor=none;top=0;left=0;bottom=0;right=0;align=left;spacingLeft=6;fontStyle=5;overflow=hidden;whiteSpace=wrap;html=1;fontFamily=Hack Nerd Font;labelBackgroundColor=none;rounded=1;strokeColor=#D0CEE2;fontColor=#1A1A1A;" parent="gIX4ZdvpRPkXEoyVLq0K-62" vertex="1">
          <mxGeometry x="80" width="220" height="30" as="geometry">
            <mxRectangle width="220" height="30" as="alternateBounds" />
          </mxGeometry>
        </mxCell>
        <mxCell id="gIX4ZdvpRPkXEoyVLq0K-65" value="" style="shape=tableRow;horizontal=0;startSize=0;swimlaneHead=0;swimlaneBody=0;fillColor=none;collapsible=0;dropTarget=0;points=[[0,0.5],[1,0.5]];portConstraint=eastwest;top=0;left=0;right=0;bottom=0;fontFamily=Hack Nerd Font;labelBackgroundColor=none;rounded=1;strokeColor=#D0CEE2;fontColor=#1A1A1A;" parent="gIX4ZdvpRPkXEoyVLq0K-61" vertex="1">
          <mxGeometry y="60" width="300" height="30" as="geometry" />
        </mxCell>
        <mxCell id="gIX4ZdvpRPkXEoyVLq0K-66" value="&lt;b&gt;&lt;u&gt;FK&lt;/u&gt;&lt;/b&gt;" style="shape=partialRectangle;connectable=0;fillColor=none;top=0;left=0;bottom=1;right=0;editable=1;overflow=hidden;whiteSpace=wrap;html=1;fontFamily=Hack Nerd Font;labelBackgroundColor=none;rounded=1;strokeColor=#D0CEE2;fontColor=#1A1A1A;" parent="gIX4ZdvpRPkXEoyVLq0K-65" vertex="1">
          <mxGeometry width="80" height="30" as="geometry">
            <mxRectangle width="80" height="30" as="alternateBounds" />
          </mxGeometry>
        </mxCell>
        <mxCell id="gIX4ZdvpRPkXEoyVLq0K-67" value="&lt;b&gt;&lt;u&gt;InstallmentId&lt;/u&gt;&lt;/b&gt;" style="shape=partialRectangle;connectable=0;fillColor=none;top=0;left=0;bottom=1;right=0;align=left;spacingLeft=6;overflow=hidden;whiteSpace=wrap;html=1;fontFamily=Hack Nerd Font;labelBackgroundColor=none;rounded=1;strokeColor=#D0CEE2;fontColor=#1A1A1A;" parent="gIX4ZdvpRPkXEoyVLq0K-65" vertex="1">
          <mxGeometry x="80" width="220" height="30" as="geometry">
            <mxRectangle width="220" height="30" as="alternateBounds" />
          </mxGeometry>
        </mxCell>
        <mxCell id="gIX4ZdvpRPkXEoyVLq0K-68" value="" style="shape=tableRow;horizontal=0;startSize=0;swimlaneHead=0;swimlaneBody=0;fillColor=none;collapsible=0;dropTarget=0;points=[[0,0.5],[1,0.5]];portConstraint=eastwest;top=0;left=0;right=0;bottom=0;fontFamily=Hack Nerd Font;labelBackgroundColor=none;rounded=1;strokeColor=#D0CEE2;fontColor=#1A1A1A;" parent="gIX4ZdvpRPkXEoyVLq0K-61" vertex="1">
          <mxGeometry y="90" width="300" height="30" as="geometry" />
        </mxCell>
        <mxCell id="gIX4ZdvpRPkXEoyVLq0K-69" value="DateTime" style="shape=partialRectangle;connectable=0;fillColor=none;top=0;left=0;bottom=0;right=0;editable=1;overflow=hidden;whiteSpace=wrap;html=1;fontFamily=Hack Nerd Font;labelBackgroundColor=none;rounded=1;strokeColor=#D0CEE2;fontColor=#1A1A1A;" parent="gIX4ZdvpRPkXEoyVLq0K-68" vertex="1">
          <mxGeometry width="80" height="30" as="geometry">
            <mxRectangle width="80" height="30" as="alternateBounds" />
          </mxGeometry>
        </mxCell>
        <mxCell id="gIX4ZdvpRPkXEoyVLq0K-70" value="PaymentDate" style="shape=partialRectangle;connectable=0;fillColor=none;top=0;left=0;bottom=0;right=0;align=left;spacingLeft=6;overflow=hidden;whiteSpace=wrap;html=1;fontFamily=Hack Nerd Font;labelBackgroundColor=none;rounded=1;strokeColor=#D0CEE2;fontColor=#1A1A1A;" parent="gIX4ZdvpRPkXEoyVLq0K-68" vertex="1">
          <mxGeometry x="80" width="220" height="30" as="geometry">
            <mxRectangle width="220" height="30" as="alternateBounds" />
          </mxGeometry>
        </mxCell>
        <mxCell id="gIX4ZdvpRPkXEoyVLq0K-71" value="" style="shape=tableRow;horizontal=0;startSize=0;swimlaneHead=0;swimlaneBody=0;fillColor=none;collapsible=0;dropTarget=0;points=[[0,0.5],[1,0.5]];portConstraint=eastwest;top=0;left=0;right=0;bottom=0;fontFamily=Hack Nerd Font;labelBackgroundColor=none;rounded=1;strokeColor=#D0CEE2;fontColor=#1A1A1A;" parent="gIX4ZdvpRPkXEoyVLq0K-61" vertex="1">
          <mxGeometry y="120" width="300" height="30" as="geometry" />
        </mxCell>
        <mxCell id="gIX4ZdvpRPkXEoyVLq0K-72" value="decimal" style="shape=partialRectangle;connectable=0;fillColor=none;top=0;left=0;bottom=0;right=0;editable=1;overflow=hidden;whiteSpace=wrap;html=1;fontFamily=Hack Nerd Font;labelBackgroundColor=none;rounded=1;strokeColor=#D0CEE2;fontColor=#1A1A1A;" parent="gIX4ZdvpRPkXEoyVLq0K-71" vertex="1">
          <mxGeometry width="80" height="30" as="geometry">
            <mxRectangle width="80" height="30" as="alternateBounds" />
          </mxGeometry>
        </mxCell>
        <mxCell id="gIX4ZdvpRPkXEoyVLq0K-73" value="PaymentAmount" style="shape=partialRectangle;connectable=0;fillColor=none;top=0;left=0;bottom=0;right=0;align=left;spacingLeft=6;overflow=hidden;whiteSpace=wrap;html=1;fontFamily=Hack Nerd Font;labelBackgroundColor=none;rounded=1;strokeColor=#D0CEE2;fontColor=#1A1A1A;" parent="gIX4ZdvpRPkXEoyVLq0K-71" vertex="1">
          <mxGeometry x="80" width="220" height="30" as="geometry">
            <mxRectangle width="220" height="30" as="alternateBounds" />
          </mxGeometry>
        </mxCell>
        <mxCell id="gIX4ZdvpRPkXEoyVLq0K-74" style="shape=tableRow;horizontal=0;startSize=0;swimlaneHead=0;swimlaneBody=0;fillColor=none;collapsible=0;dropTarget=0;points=[[0,0.5],[1,0.5]];portConstraint=eastwest;top=0;left=0;right=0;bottom=0;fontFamily=Hack Nerd Font;labelBackgroundColor=none;rounded=1;strokeColor=#D0CEE2;fontColor=#1A1A1A;" parent="gIX4ZdvpRPkXEoyVLq0K-61" vertex="1">
          <mxGeometry y="150" width="300" height="30" as="geometry" />
        </mxCell>
        <mxCell id="gIX4ZdvpRPkXEoyVLq0K-75" value="string" style="shape=partialRectangle;connectable=0;fillColor=none;top=0;left=0;bottom=0;right=0;editable=1;overflow=hidden;whiteSpace=wrap;html=1;fontFamily=Hack Nerd Font;labelBackgroundColor=none;rounded=1;strokeColor=#D0CEE2;fontColor=#1A1A1A;" parent="gIX4ZdvpRPkXEoyVLq0K-74" vertex="1">
          <mxGeometry width="80" height="30" as="geometry">
            <mxRectangle width="80" height="30" as="alternateBounds" />
          </mxGeometry>
        </mxCell>
        <mxCell id="gIX4ZdvpRPkXEoyVLq0K-76" value="Status" style="shape=partialRectangle;connectable=0;fillColor=none;top=0;left=0;bottom=0;right=0;align=left;spacingLeft=6;overflow=hidden;whiteSpace=wrap;html=1;fontFamily=Hack Nerd Font;labelBackgroundColor=none;rounded=1;strokeColor=#D0CEE2;fontColor=#1A1A1A;" parent="gIX4ZdvpRPkXEoyVLq0K-74" vertex="1">
          <mxGeometry x="80" width="220" height="30" as="geometry">
            <mxRectangle width="220" height="30" as="alternateBounds" />
          </mxGeometry>
        </mxCell>
        <mxCell id="gIX4ZdvpRPkXEoyVLq0K-86" value="Installment" style="shape=table;startSize=30;container=1;collapsible=1;childLayout=tableLayout;fixedRows=1;rowLines=0;fontStyle=1;align=center;resizeLast=1;html=1;fontFamily=Hack Nerd Font;labelBackgroundColor=none;rounded=1;arcSize=0;fillColor=#5D7F99;strokeColor=#D0CEE2;fontColor=#1A1A1A;" parent="1" vertex="1">
          <mxGeometry x="490" y="530" width="300" height="270" as="geometry" />
        </mxCell>
        <mxCell id="gIX4ZdvpRPkXEoyVLq0K-87" value="" style="shape=tableRow;horizontal=0;startSize=0;swimlaneHead=0;swimlaneBody=0;fillColor=none;collapsible=0;dropTarget=0;points=[[0,0.5],[1,0.5]];portConstraint=eastwest;top=0;left=0;right=0;bottom=1;fontFamily=Hack Nerd Font;labelBackgroundColor=none;rounded=1;strokeColor=#D0CEE2;fontColor=#1A1A1A;" parent="gIX4ZdvpRPkXEoyVLq0K-86" vertex="1">
          <mxGeometry y="30" width="300" height="30" as="geometry" />
        </mxCell>
        <mxCell id="gIX4ZdvpRPkXEoyVLq0K-88" value="&lt;u&gt;PK&lt;/u&gt;" style="shape=partialRectangle;connectable=0;fillColor=none;top=0;left=0;bottom=0;right=0;fontStyle=1;overflow=hidden;whiteSpace=wrap;html=1;fontFamily=Hack Nerd Font;labelBackgroundColor=none;rounded=1;strokeColor=#D0CEE2;fontColor=#1A1A1A;" parent="gIX4ZdvpRPkXEoyVLq0K-87" vertex="1">
          <mxGeometry width="80" height="30" as="geometry">
            <mxRectangle width="80" height="30" as="alternateBounds" />
          </mxGeometry>
        </mxCell>
        <mxCell id="gIX4ZdvpRPkXEoyVLq0K-89" value="Id" style="shape=partialRectangle;connectable=0;fillColor=none;top=0;left=0;bottom=0;right=0;align=left;spacingLeft=6;fontStyle=5;overflow=hidden;whiteSpace=wrap;html=1;fontFamily=Hack Nerd Font;labelBackgroundColor=none;rounded=1;strokeColor=#D0CEE2;fontColor=#1A1A1A;" parent="gIX4ZdvpRPkXEoyVLq0K-87" vertex="1">
          <mxGeometry x="80" width="220" height="30" as="geometry">
            <mxRectangle width="220" height="30" as="alternateBounds" />
          </mxGeometry>
        </mxCell>
        <mxCell id="gIX4ZdvpRPkXEoyVLq0K-90" value="" style="shape=tableRow;horizontal=0;startSize=0;swimlaneHead=0;swimlaneBody=0;fillColor=none;collapsible=0;dropTarget=0;points=[[0,0.5],[1,0.5]];portConstraint=eastwest;top=0;left=0;right=0;bottom=0;fontFamily=Hack Nerd Font;labelBackgroundColor=none;rounded=1;strokeColor=#D0CEE2;fontColor=#1A1A1A;" parent="gIX4ZdvpRPkXEoyVLq0K-86" vertex="1">
          <mxGeometry y="60" width="300" height="30" as="geometry" />
        </mxCell>
        <mxCell id="gIX4ZdvpRPkXEoyVLq0K-91" value="&lt;b&gt;&lt;u&gt;FK&lt;/u&gt;&lt;/b&gt;" style="shape=partialRectangle;connectable=0;fillColor=none;top=0;left=0;bottom=1;right=0;editable=1;overflow=hidden;whiteSpace=wrap;html=1;fontFamily=Hack Nerd Font;labelBackgroundColor=none;rounded=1;strokeColor=#D0CEE2;fontColor=#1A1A1A;" parent="gIX4ZdvpRPkXEoyVLq0K-90" vertex="1">
          <mxGeometry width="80" height="30" as="geometry">
            <mxRectangle width="80" height="30" as="alternateBounds" />
          </mxGeometry>
        </mxCell>
        <mxCell id="gIX4ZdvpRPkXEoyVLq0K-92" value="&lt;b&gt;&lt;u&gt;ApprovedLoanId&lt;/u&gt;&lt;/b&gt;" style="shape=partialRectangle;connectable=0;fillColor=none;top=0;left=0;bottom=1;right=0;align=left;spacingLeft=6;overflow=hidden;whiteSpace=wrap;html=1;fontFamily=Hack Nerd Font;labelBackgroundColor=none;rounded=1;strokeColor=#D0CEE2;fontColor=#1A1A1A;" parent="gIX4ZdvpRPkXEoyVLq0K-90" vertex="1">
          <mxGeometry x="80" width="220" height="30" as="geometry">
            <mxRectangle width="220" height="30" as="alternateBounds" />
          </mxGeometry>
        </mxCell>
        <mxCell id="pULcvPwTSCyIzD-peDKf-28" style="shape=tableRow;horizontal=0;startSize=0;swimlaneHead=0;swimlaneBody=0;fillColor=none;collapsible=0;dropTarget=0;points=[[0,0.5],[1,0.5]];portConstraint=eastwest;top=0;left=0;right=0;bottom=0;fontFamily=Hack Nerd Font;labelBackgroundColor=none;rounded=1;strokeColor=#D0CEE2;fontColor=#1A1A1A;" parent="gIX4ZdvpRPkXEoyVLq0K-86" vertex="1">
          <mxGeometry y="90" width="300" height="30" as="geometry" />
        </mxCell>
        <mxCell id="pULcvPwTSCyIzD-peDKf-29" value="&lt;b&gt;&lt;u&gt;FK&lt;/u&gt;&lt;/b&gt;" style="shape=partialRectangle;connectable=0;fillColor=none;top=0;left=0;bottom=1;right=0;editable=1;overflow=hidden;whiteSpace=wrap;html=1;fontFamily=Hack Nerd Font;labelBackgroundColor=none;rounded=1;strokeColor=#D0CEE2;fontColor=#1A1A1A;" parent="pULcvPwTSCyIzD-peDKf-28" vertex="1">
          <mxGeometry width="80" height="30" as="geometry">
            <mxRectangle width="80" height="30" as="alternateBounds" />
          </mxGeometry>
        </mxCell>
        <mxCell id="pULcvPwTSCyIzD-peDKf-30" value="&lt;b&gt;&lt;u&gt;InstallmentPayments&lt;/u&gt;&lt;/b&gt;" style="shape=partialRectangle;connectable=0;fillColor=none;top=0;left=0;bottom=1;right=0;align=left;spacingLeft=6;overflow=hidden;whiteSpace=wrap;html=1;fontFamily=Hack Nerd Font;labelBackgroundColor=none;rounded=1;strokeColor=#D0CEE2;fontColor=#1A1A1A;" parent="pULcvPwTSCyIzD-peDKf-28" vertex="1">
          <mxGeometry x="80" width="220" height="30" as="geometry">
            <mxRectangle width="220" height="30" as="alternateBounds" />
          </mxGeometry>
        </mxCell>
        <mxCell id="gIX4ZdvpRPkXEoyVLq0K-93" value="" style="shape=tableRow;horizontal=0;startSize=0;swimlaneHead=0;swimlaneBody=0;fillColor=none;collapsible=0;dropTarget=0;points=[[0,0.5],[1,0.5]];portConstraint=eastwest;top=0;left=0;right=0;bottom=0;fontFamily=Hack Nerd Font;labelBackgroundColor=none;rounded=1;strokeColor=#D0CEE2;fontColor=#1A1A1A;" parent="gIX4ZdvpRPkXEoyVLq0K-86" vertex="1">
          <mxGeometry y="120" width="300" height="30" as="geometry" />
        </mxCell>
        <mxCell id="gIX4ZdvpRPkXEoyVLq0K-94" value="decimal" style="shape=partialRectangle;connectable=0;fillColor=none;top=0;left=0;bottom=0;right=0;editable=1;overflow=hidden;whiteSpace=wrap;html=1;fontFamily=Hack Nerd Font;labelBackgroundColor=none;rounded=1;strokeColor=#D0CEE2;fontColor=#1A1A1A;" parent="gIX4ZdvpRPkXEoyVLq0K-93" vertex="1">
          <mxGeometry width="80" height="30" as="geometry">
            <mxRectangle width="80" height="30" as="alternateBounds" />
          </mxGeometry>
        </mxCell>
        <mxCell id="gIX4ZdvpRPkXEoyVLq0K-95" value="TotalAmount" style="shape=partialRectangle;connectable=0;fillColor=none;top=0;left=0;bottom=0;right=0;align=left;spacingLeft=6;overflow=hidden;whiteSpace=wrap;html=1;fontFamily=Hack Nerd Font;labelBackgroundColor=none;rounded=1;strokeColor=#D0CEE2;fontColor=#1A1A1A;" parent="gIX4ZdvpRPkXEoyVLq0K-93" vertex="1">
          <mxGeometry x="80" width="220" height="30" as="geometry">
            <mxRectangle width="220" height="30" as="alternateBounds" />
          </mxGeometry>
        </mxCell>
        <mxCell id="gIX4ZdvpRPkXEoyVLq0K-96" value="" style="shape=tableRow;horizontal=0;startSize=0;swimlaneHead=0;swimlaneBody=0;fillColor=none;collapsible=0;dropTarget=0;points=[[0,0.5],[1,0.5]];portConstraint=eastwest;top=0;left=0;right=0;bottom=0;fontFamily=Hack Nerd Font;labelBackgroundColor=none;rounded=1;strokeColor=#D0CEE2;fontColor=#1A1A1A;" parent="gIX4ZdvpRPkXEoyVLq0K-86" vertex="1">
          <mxGeometry y="150" width="300" height="30" as="geometry" />
        </mxCell>
        <mxCell id="gIX4ZdvpRPkXEoyVLq0K-97" value="decimal" style="shape=partialRectangle;connectable=0;fillColor=none;top=0;left=0;bottom=0;right=0;editable=1;overflow=hidden;whiteSpace=wrap;html=1;fontFamily=Hack Nerd Font;labelBackgroundColor=none;rounded=1;strokeColor=#D0CEE2;fontColor=#1A1A1A;" parent="gIX4ZdvpRPkXEoyVLq0K-96" vertex="1">
          <mxGeometry width="80" height="30" as="geometry">
            <mxRectangle width="80" height="30" as="alternateBounds" />
          </mxGeometry>
        </mxCell>
        <mxCell id="gIX4ZdvpRPkXEoyVLq0K-98" value="PrincipalAmount" style="shape=partialRectangle;connectable=0;fillColor=none;top=0;left=0;bottom=0;right=0;align=left;spacingLeft=6;overflow=hidden;whiteSpace=wrap;html=1;fontFamily=Hack Nerd Font;labelBackgroundColor=none;rounded=1;strokeColor=#D0CEE2;fontColor=#1A1A1A;" parent="gIX4ZdvpRPkXEoyVLq0K-96" vertex="1">
          <mxGeometry x="80" width="220" height="30" as="geometry">
            <mxRectangle width="220" height="30" as="alternateBounds" />
          </mxGeometry>
        </mxCell>
        <mxCell id="gIX4ZdvpRPkXEoyVLq0K-99" style="shape=tableRow;horizontal=0;startSize=0;swimlaneHead=0;swimlaneBody=0;fillColor=none;collapsible=0;dropTarget=0;points=[[0,0.5],[1,0.5]];portConstraint=eastwest;top=0;left=0;right=0;bottom=0;fontFamily=Hack Nerd Font;labelBackgroundColor=none;rounded=1;strokeColor=#D0CEE2;fontColor=#1A1A1A;" parent="gIX4ZdvpRPkXEoyVLq0K-86" vertex="1">
          <mxGeometry y="180" width="300" height="30" as="geometry" />
        </mxCell>
        <mxCell id="gIX4ZdvpRPkXEoyVLq0K-100" value="decimal" style="shape=partialRectangle;connectable=0;fillColor=none;top=0;left=0;bottom=0;right=0;editable=1;overflow=hidden;whiteSpace=wrap;html=1;fontFamily=Hack Nerd Font;labelBackgroundColor=none;rounded=1;strokeColor=#D0CEE2;fontColor=#1A1A1A;" parent="gIX4ZdvpRPkXEoyVLq0K-99" vertex="1">
          <mxGeometry width="80" height="30" as="geometry">
            <mxRectangle width="80" height="30" as="alternateBounds" />
          </mxGeometry>
        </mxCell>
        <mxCell id="gIX4ZdvpRPkXEoyVLq0K-101" value="InterestAmount" style="shape=partialRectangle;connectable=0;fillColor=none;top=0;left=0;bottom=0;right=0;align=left;spacingLeft=6;overflow=hidden;whiteSpace=wrap;html=1;fontFamily=Hack Nerd Font;labelBackgroundColor=none;rounded=1;strokeColor=#D0CEE2;fontColor=#1A1A1A;" parent="gIX4ZdvpRPkXEoyVLq0K-99" vertex="1">
          <mxGeometry x="80" width="220" height="30" as="geometry">
            <mxRectangle width="220" height="30" as="alternateBounds" />
          </mxGeometry>
        </mxCell>
        <mxCell id="gIX4ZdvpRPkXEoyVLq0K-102" style="shape=tableRow;horizontal=0;startSize=0;swimlaneHead=0;swimlaneBody=0;fillColor=none;collapsible=0;dropTarget=0;points=[[0,0.5],[1,0.5]];portConstraint=eastwest;top=0;left=0;right=0;bottom=0;fontFamily=Hack Nerd Font;labelBackgroundColor=none;rounded=1;strokeColor=#D0CEE2;fontColor=#1A1A1A;" parent="gIX4ZdvpRPkXEoyVLq0K-86" vertex="1">
          <mxGeometry y="210" width="300" height="30" as="geometry" />
        </mxCell>
        <mxCell id="gIX4ZdvpRPkXEoyVLq0K-103" value="DateTime" style="shape=partialRectangle;connectable=0;fillColor=none;top=0;left=0;bottom=0;right=0;editable=1;overflow=hidden;whiteSpace=wrap;html=1;fontFamily=Hack Nerd Font;labelBackgroundColor=none;rounded=1;strokeColor=#D0CEE2;fontColor=#1A1A1A;" parent="gIX4ZdvpRPkXEoyVLq0K-102" vertex="1">
          <mxGeometry width="80" height="30" as="geometry">
            <mxRectangle width="80" height="30" as="alternateBounds" />
          </mxGeometry>
        </mxCell>
        <mxCell id="gIX4ZdvpRPkXEoyVLq0K-104" value="DueDate" style="shape=partialRectangle;connectable=0;fillColor=none;top=0;left=0;bottom=0;right=0;align=left;spacingLeft=6;overflow=hidden;whiteSpace=wrap;html=1;fontFamily=Hack Nerd Font;labelBackgroundColor=none;rounded=1;strokeColor=#D0CEE2;fontColor=#1A1A1A;" parent="gIX4ZdvpRPkXEoyVLq0K-102" vertex="1">
          <mxGeometry x="80" width="220" height="30" as="geometry">
            <mxRectangle width="220" height="30" as="alternateBounds" />
          </mxGeometry>
        </mxCell>
        <mxCell id="gIX4ZdvpRPkXEoyVLq0K-105" style="shape=tableRow;horizontal=0;startSize=0;swimlaneHead=0;swimlaneBody=0;fillColor=none;collapsible=0;dropTarget=0;points=[[0,0.5],[1,0.5]];portConstraint=eastwest;top=0;left=0;right=0;bottom=0;fontFamily=Hack Nerd Font;labelBackgroundColor=none;rounded=1;strokeColor=#D0CEE2;fontColor=#1A1A1A;" parent="gIX4ZdvpRPkXEoyVLq0K-86" vertex="1">
          <mxGeometry y="240" width="300" height="30" as="geometry" />
        </mxCell>
        <mxCell id="gIX4ZdvpRPkXEoyVLq0K-106" value="string" style="shape=partialRectangle;connectable=0;fillColor=none;top=0;left=0;bottom=0;right=0;editable=1;overflow=hidden;whiteSpace=wrap;html=1;fontFamily=Hack Nerd Font;labelBackgroundColor=none;rounded=1;strokeColor=#D0CEE2;fontColor=#1A1A1A;" parent="gIX4ZdvpRPkXEoyVLq0K-105" vertex="1">
          <mxGeometry width="80" height="30" as="geometry">
            <mxRectangle width="80" height="30" as="alternateBounds" />
          </mxGeometry>
        </mxCell>
        <mxCell id="gIX4ZdvpRPkXEoyVLq0K-107" value="Status" style="shape=partialRectangle;connectable=0;fillColor=none;top=0;left=0;bottom=0;right=0;align=left;spacingLeft=6;overflow=hidden;whiteSpace=wrap;html=1;fontFamily=Hack Nerd Font;labelBackgroundColor=none;rounded=1;strokeColor=#D0CEE2;fontColor=#1A1A1A;" parent="gIX4ZdvpRPkXEoyVLq0K-105" vertex="1">
          <mxGeometry x="80" width="220" height="30" as="geometry">
            <mxRectangle width="220" height="30" as="alternateBounds" />
          </mxGeometry>
        </mxCell>
        <mxCell id="gIX4ZdvpRPkXEoyVLq0K-127" value="ApprovedLoan" style="shape=table;startSize=30;container=1;collapsible=1;childLayout=tableLayout;fixedRows=1;rowLines=0;fontStyle=1;align=center;resizeLast=1;html=1;fontFamily=Hack Nerd Font;labelBackgroundColor=none;rounded=1;arcSize=0;fillColor=#5D7F99;strokeColor=#D0CEE2;fontColor=#1A1A1A;" parent="1" vertex="1">
          <mxGeometry x="110" y="530" width="300" height="330" as="geometry" />
        </mxCell>
        <mxCell id="gIX4ZdvpRPkXEoyVLq0K-128" value="" style="shape=tableRow;horizontal=0;startSize=0;swimlaneHead=0;swimlaneBody=0;fillColor=none;collapsible=0;dropTarget=0;points=[[0,0.5],[1,0.5]];portConstraint=eastwest;top=0;left=0;right=0;bottom=1;fontFamily=Hack Nerd Font;labelBackgroundColor=none;rounded=1;strokeColor=#D0CEE2;fontColor=#1A1A1A;" parent="gIX4ZdvpRPkXEoyVLq0K-127" vertex="1">
          <mxGeometry y="30" width="300" height="30" as="geometry" />
        </mxCell>
        <mxCell id="gIX4ZdvpRPkXEoyVLq0K-129" value="PK" style="shape=partialRectangle;connectable=0;fillColor=none;top=0;left=0;bottom=0;right=0;fontStyle=1;overflow=hidden;whiteSpace=wrap;html=1;fontFamily=Hack Nerd Font;labelBackgroundColor=none;rounded=1;strokeColor=#D0CEE2;fontColor=#1A1A1A;" parent="gIX4ZdvpRPkXEoyVLq0K-128" vertex="1">
          <mxGeometry width="80" height="30" as="geometry">
            <mxRectangle width="80" height="30" as="alternateBounds" />
          </mxGeometry>
        </mxCell>
        <mxCell id="gIX4ZdvpRPkXEoyVLq0K-130" value="Id" style="shape=partialRectangle;connectable=0;fillColor=none;top=0;left=0;bottom=0;right=0;align=left;spacingLeft=6;fontStyle=5;overflow=hidden;whiteSpace=wrap;html=1;fontFamily=Hack Nerd Font;labelBackgroundColor=none;rounded=1;strokeColor=#D0CEE2;fontColor=#1A1A1A;" parent="gIX4ZdvpRPkXEoyVLq0K-128" vertex="1">
          <mxGeometry x="80" width="220" height="30" as="geometry">
            <mxRectangle width="220" height="30" as="alternateBounds" />
          </mxGeometry>
        </mxCell>
        <mxCell id="gIX4ZdvpRPkXEoyVLq0K-131" value="" style="shape=tableRow;horizontal=0;startSize=0;swimlaneHead=0;swimlaneBody=0;fillColor=none;collapsible=0;dropTarget=0;points=[[0,0.5],[1,0.5]];portConstraint=eastwest;top=0;left=0;right=0;bottom=0;fontFamily=Hack Nerd Font;labelBackgroundColor=none;rounded=1;strokeColor=#D0CEE2;fontColor=#1A1A1A;" parent="gIX4ZdvpRPkXEoyVLq0K-127" vertex="1">
          <mxGeometry y="60" width="300" height="30" as="geometry" />
        </mxCell>
        <mxCell id="gIX4ZdvpRPkXEoyVLq0K-132" value="FK" style="shape=partialRectangle;connectable=0;fillColor=none;top=0;left=0;bottom=1;right=0;editable=1;overflow=hidden;fontFamily=Hack Nerd Font;labelBackgroundColor=none;rounded=1;labelBorderColor=none;whiteSpace=wrap;html=1;fontStyle=5;strokeColor=#D0CEE2;fontColor=#1A1A1A;" parent="gIX4ZdvpRPkXEoyVLq0K-131" vertex="1">
          <mxGeometry width="80" height="30" as="geometry">
            <mxRectangle width="80" height="30" as="alternateBounds" />
          </mxGeometry>
        </mxCell>
        <mxCell id="gIX4ZdvpRPkXEoyVLq0K-133" value="LoanRequestId" style="shape=partialRectangle;connectable=0;fillColor=none;top=0;left=0;bottom=1;right=0;align=left;spacingLeft=6;overflow=hidden;fontFamily=Hack Nerd Font;labelBackgroundColor=none;rounded=1;labelBorderColor=none;whiteSpace=wrap;html=1;fontStyle=5;textShadow=0;noLabel=0;snapToPoint=0;comic=0;enumerate=0;treeMoving=0;treeFolding=0;resizeHeight=0;strokeColor=#D0CEE2;fontColor=#1A1A1A;" parent="gIX4ZdvpRPkXEoyVLq0K-131" vertex="1">
          <mxGeometry x="80" width="220" height="30" as="geometry">
            <mxRectangle width="220" height="30" as="alternateBounds" />
          </mxGeometry>
        </mxCell>
        <mxCell id="gIX4ZdvpRPkXEoyVLq0K-143" style="shape=tableRow;horizontal=0;startSize=0;swimlaneHead=0;swimlaneBody=0;fillColor=none;collapsible=0;dropTarget=0;points=[[0,0.5],[1,0.5]];portConstraint=eastwest;top=0;left=0;right=0;bottom=0;fontFamily=Hack Nerd Font;labelBackgroundColor=none;rounded=1;strokeColor=#D0CEE2;fontColor=#1A1A1A;" parent="gIX4ZdvpRPkXEoyVLq0K-127" vertex="1">
          <mxGeometry y="90" width="300" height="30" as="geometry" />
        </mxCell>
        <mxCell id="gIX4ZdvpRPkXEoyVLq0K-144" value="FK" style="shape=partialRectangle;connectable=0;fillColor=none;top=0;left=0;bottom=1;right=0;editable=1;overflow=hidden;fontFamily=Hack Nerd Font;labelBackgroundColor=none;rounded=1;labelBorderColor=none;whiteSpace=wrap;html=1;fontStyle=5;strokeColor=#D0CEE2;fontColor=#1A1A1A;" parent="gIX4ZdvpRPkXEoyVLq0K-143" vertex="1">
          <mxGeometry width="80" height="30" as="geometry">
            <mxRectangle width="80" height="30" as="alternateBounds" />
          </mxGeometry>
        </mxCell>
        <mxCell id="gIX4ZdvpRPkXEoyVLq0K-145" value="CustomerId" style="shape=partialRectangle;connectable=0;fillColor=none;top=0;left=0;bottom=1;right=0;align=left;spacingLeft=6;overflow=hidden;fontFamily=Hack Nerd Font;labelBackgroundColor=none;rounded=1;labelBorderColor=none;whiteSpace=wrap;html=1;fontStyle=5;strokeColor=#D0CEE2;fontColor=#1A1A1A;" parent="gIX4ZdvpRPkXEoyVLq0K-143" vertex="1">
          <mxGeometry x="80" width="220" height="30" as="geometry">
            <mxRectangle width="220" height="30" as="alternateBounds" />
          </mxGeometry>
        </mxCell>
        <mxCell id="pULcvPwTSCyIzD-peDKf-32" style="shape=tableRow;horizontal=0;startSize=0;swimlaneHead=0;swimlaneBody=0;fillColor=none;collapsible=0;dropTarget=0;points=[[0,0.5],[1,0.5]];portConstraint=eastwest;top=0;left=0;right=0;bottom=0;fontFamily=Hack Nerd Font;labelBackgroundColor=none;rounded=1;strokeColor=#D0CEE2;fontColor=#1A1A1A;" parent="gIX4ZdvpRPkXEoyVLq0K-127" vertex="1">
          <mxGeometry y="120" width="300" height="30" as="geometry" />
        </mxCell>
        <mxCell id="pULcvPwTSCyIzD-peDKf-33" value="FK" style="shape=partialRectangle;connectable=0;fillColor=none;top=0;left=0;bottom=1;right=0;editable=1;overflow=hidden;fontFamily=Hack Nerd Font;labelBackgroundColor=none;rounded=1;labelBorderColor=none;whiteSpace=wrap;html=1;fontStyle=5;strokeColor=#D0CEE2;fontColor=#1A1A1A;" parent="pULcvPwTSCyIzD-peDKf-32" vertex="1">
          <mxGeometry width="80" height="30" as="geometry">
            <mxRectangle width="80" height="30" as="alternateBounds" />
          </mxGeometry>
        </mxCell>
        <mxCell id="pULcvPwTSCyIzD-peDKf-34" value="Installments" style="shape=partialRectangle;connectable=0;fillColor=none;top=0;left=0;bottom=1;right=0;align=left;spacingLeft=6;overflow=hidden;fontFamily=Hack Nerd Font;labelBackgroundColor=none;rounded=1;labelBorderColor=none;whiteSpace=wrap;html=1;fontStyle=5;strokeColor=#D0CEE2;fontColor=#1A1A1A;" parent="pULcvPwTSCyIzD-peDKf-32" vertex="1">
          <mxGeometry x="80" width="220" height="30" as="geometry">
            <mxRectangle width="220" height="30" as="alternateBounds" />
          </mxGeometry>
        </mxCell>
        <mxCell id="gIX4ZdvpRPkXEoyVLq0K-149" style="shape=tableRow;horizontal=0;startSize=0;swimlaneHead=0;swimlaneBody=0;fillColor=none;collapsible=0;dropTarget=0;points=[[0,0.5],[1,0.5]];portConstraint=eastwest;top=0;left=0;right=0;bottom=0;fontFamily=Hack Nerd Font;labelBackgroundColor=none;rounded=1;strokeColor=#D0CEE2;fontColor=#1A1A1A;" parent="gIX4ZdvpRPkXEoyVLq0K-127" vertex="1">
          <mxGeometry y="150" width="300" height="30" as="geometry" />
        </mxCell>
        <mxCell id="gIX4ZdvpRPkXEoyVLq0K-150" value="float" style="shape=partialRectangle;connectable=0;fillColor=none;top=0;left=0;bottom=0;right=0;editable=1;overflow=hidden;whiteSpace=wrap;html=1;fontFamily=Hack Nerd Font;labelBackgroundColor=none;rounded=1;strokeColor=#D0CEE2;fontColor=#1A1A1A;" parent="gIX4ZdvpRPkXEoyVLq0K-149" vertex="1">
          <mxGeometry width="80" height="30" as="geometry">
            <mxRectangle width="80" height="30" as="alternateBounds" />
          </mxGeometry>
        </mxCell>
        <mxCell id="gIX4ZdvpRPkXEoyVLq0K-151" value="InterestRate" style="shape=partialRectangle;connectable=0;fillColor=none;top=0;left=0;bottom=0;right=0;align=left;spacingLeft=6;overflow=hidden;whiteSpace=wrap;html=1;fontFamily=Hack Nerd Font;labelBackgroundColor=none;rounded=1;strokeColor=#D0CEE2;fontColor=#1A1A1A;" parent="gIX4ZdvpRPkXEoyVLq0K-149" vertex="1">
          <mxGeometry x="80" width="220" height="30" as="geometry">
            <mxRectangle width="220" height="30" as="alternateBounds" />
          </mxGeometry>
        </mxCell>
        <mxCell id="ypKWcNt-lFt8h2dKR2f8-2" style="shape=tableRow;horizontal=0;startSize=0;swimlaneHead=0;swimlaneBody=0;fillColor=none;collapsible=0;dropTarget=0;points=[[0,0.5],[1,0.5]];portConstraint=eastwest;top=0;left=0;right=0;bottom=0;fontFamily=Hack Nerd Font;labelBackgroundColor=none;rounded=1;strokeColor=#D0CEE2;fontColor=#1A1A1A;" vertex="1" parent="gIX4ZdvpRPkXEoyVLq0K-127">
          <mxGeometry y="180" width="300" height="30" as="geometry" />
        </mxCell>
        <mxCell id="ypKWcNt-lFt8h2dKR2f8-3" value="ushort" style="shape=partialRectangle;connectable=0;fillColor=none;top=0;left=0;bottom=0;right=0;editable=1;overflow=hidden;whiteSpace=wrap;html=1;fontFamily=Hack Nerd Font;labelBackgroundColor=none;rounded=1;strokeColor=#D0CEE2;fontColor=#1A1A1A;" vertex="1" parent="ypKWcNt-lFt8h2dKR2f8-2">
          <mxGeometry width="80" height="30" as="geometry">
            <mxRectangle width="80" height="30" as="alternateBounds" />
          </mxGeometry>
        </mxCell>
        <mxCell id="ypKWcNt-lFt8h2dKR2f8-4" value="Months" style="shape=partialRectangle;connectable=0;fillColor=none;top=0;left=0;bottom=0;right=0;align=left;spacingLeft=6;overflow=hidden;whiteSpace=wrap;html=1;fontFamily=Hack Nerd Font;labelBackgroundColor=none;rounded=1;strokeColor=#D0CEE2;fontColor=#1A1A1A;" vertex="1" parent="ypKWcNt-lFt8h2dKR2f8-2">
          <mxGeometry x="80" width="220" height="30" as="geometry">
            <mxRectangle width="220" height="30" as="alternateBounds" />
          </mxGeometry>
        </mxCell>
        <mxCell id="gIX4ZdvpRPkXEoyVLq0K-134" value="" style="shape=tableRow;horizontal=0;startSize=0;swimlaneHead=0;swimlaneBody=0;fillColor=none;collapsible=0;dropTarget=0;points=[[0,0.5],[1,0.5]];portConstraint=eastwest;top=0;left=0;right=0;bottom=0;fontFamily=Hack Nerd Font;labelBackgroundColor=none;rounded=1;strokeColor=#D0CEE2;fontColor=#1A1A1A;" parent="gIX4ZdvpRPkXEoyVLq0K-127" vertex="1">
          <mxGeometry y="210" width="300" height="30" as="geometry" />
        </mxCell>
        <mxCell id="gIX4ZdvpRPkXEoyVLq0K-135" value="DateTime" style="shape=partialRectangle;connectable=0;fillColor=none;top=0;left=0;bottom=0;right=0;editable=1;overflow=hidden;whiteSpace=wrap;html=1;fontFamily=Hack Nerd Font;labelBackgroundColor=none;rounded=1;strokeColor=#D0CEE2;fontColor=#1A1A1A;" parent="gIX4ZdvpRPkXEoyVLq0K-134" vertex="1">
          <mxGeometry width="80" height="30" as="geometry">
            <mxRectangle width="80" height="30" as="alternateBounds" />
          </mxGeometry>
        </mxCell>
        <mxCell id="gIX4ZdvpRPkXEoyVLq0K-136" value="ApprovalDate" style="shape=partialRectangle;connectable=0;fillColor=none;top=0;left=0;bottom=0;right=0;align=left;spacingLeft=6;overflow=hidden;whiteSpace=wrap;html=1;fontFamily=Hack Nerd Font;labelBackgroundColor=none;rounded=1;strokeColor=#D0CEE2;fontColor=#1A1A1A;" parent="gIX4ZdvpRPkXEoyVLq0K-134" vertex="1">
          <mxGeometry x="80" width="220" height="30" as="geometry">
            <mxRectangle width="220" height="30" as="alternateBounds" />
          </mxGeometry>
        </mxCell>
        <mxCell id="gIX4ZdvpRPkXEoyVLq0K-137" value="" style="shape=tableRow;horizontal=0;startSize=0;swimlaneHead=0;swimlaneBody=0;fillColor=none;collapsible=0;dropTarget=0;points=[[0,0.5],[1,0.5]];portConstraint=eastwest;top=0;left=0;right=0;bottom=0;fontFamily=Hack Nerd Font;labelBackgroundColor=none;rounded=1;strokeColor=#D0CEE2;fontColor=#1A1A1A;" parent="gIX4ZdvpRPkXEoyVLq0K-127" vertex="1">
          <mxGeometry y="240" width="300" height="30" as="geometry" />
        </mxCell>
        <mxCell id="gIX4ZdvpRPkXEoyVLq0K-138" value="decimal" style="shape=partialRectangle;connectable=0;fillColor=none;top=0;left=0;bottom=0;right=0;editable=1;overflow=hidden;whiteSpace=wrap;html=1;fontFamily=Hack Nerd Font;labelBackgroundColor=none;rounded=1;strokeColor=#D0CEE2;fontColor=#1A1A1A;" parent="gIX4ZdvpRPkXEoyVLq0K-137" vertex="1">
          <mxGeometry width="80" height="30" as="geometry">
            <mxRectangle width="80" height="30" as="alternateBounds" />
          </mxGeometry>
        </mxCell>
        <mxCell id="gIX4ZdvpRPkXEoyVLq0K-139" value="RequestAmount" style="shape=partialRectangle;connectable=0;fillColor=none;top=0;left=0;bottom=0;right=0;align=left;spacingLeft=6;overflow=hidden;whiteSpace=wrap;html=1;fontFamily=Hack Nerd Font;labelBackgroundColor=none;rounded=1;strokeColor=#D0CEE2;fontColor=#1A1A1A;" parent="gIX4ZdvpRPkXEoyVLq0K-137" vertex="1">
          <mxGeometry x="80" width="220" height="30" as="geometry">
            <mxRectangle width="220" height="30" as="alternateBounds" />
          </mxGeometry>
        </mxCell>
        <mxCell id="gIX4ZdvpRPkXEoyVLq0K-140" style="shape=tableRow;horizontal=0;startSize=0;swimlaneHead=0;swimlaneBody=0;fillColor=none;collapsible=0;dropTarget=0;points=[[0,0.5],[1,0.5]];portConstraint=eastwest;top=0;left=0;right=0;bottom=0;fontFamily=Hack Nerd Font;labelBackgroundColor=none;rounded=1;strokeColor=#D0CEE2;fontColor=#1A1A1A;" parent="gIX4ZdvpRPkXEoyVLq0K-127" vertex="1">
          <mxGeometry y="270" width="300" height="30" as="geometry" />
        </mxCell>
        <mxCell id="gIX4ZdvpRPkXEoyVLq0K-141" value="string" style="shape=partialRectangle;connectable=0;fillColor=none;top=0;left=0;bottom=0;right=0;editable=1;overflow=hidden;whiteSpace=wrap;html=1;fontFamily=Hack Nerd Font;labelBackgroundColor=none;rounded=1;strokeColor=#D0CEE2;fontColor=#1A1A1A;" parent="gIX4ZdvpRPkXEoyVLq0K-140" vertex="1">
          <mxGeometry width="80" height="30" as="geometry">
            <mxRectangle width="80" height="30" as="alternateBounds" />
          </mxGeometry>
        </mxCell>
        <mxCell id="gIX4ZdvpRPkXEoyVLq0K-142" value="Status" style="shape=partialRectangle;connectable=0;fillColor=none;top=0;left=0;bottom=0;right=0;align=left;spacingLeft=6;overflow=hidden;whiteSpace=wrap;html=1;fontFamily=Hack Nerd Font;labelBackgroundColor=none;rounded=1;strokeColor=#D0CEE2;fontColor=#1A1A1A;" parent="gIX4ZdvpRPkXEoyVLq0K-140" vertex="1">
          <mxGeometry x="80" width="220" height="30" as="geometry">
            <mxRectangle width="220" height="30" as="alternateBounds" />
          </mxGeometry>
        </mxCell>
        <mxCell id="gIX4ZdvpRPkXEoyVLq0K-152" style="shape=tableRow;horizontal=0;startSize=0;swimlaneHead=0;swimlaneBody=0;fillColor=none;collapsible=0;dropTarget=0;points=[[0,0.5],[1,0.5]];portConstraint=eastwest;top=0;left=0;right=0;bottom=0;fontFamily=Hack Nerd Font;labelBackgroundColor=none;rounded=1;strokeColor=#D0CEE2;fontColor=#1A1A1A;" parent="gIX4ZdvpRPkXEoyVLq0K-127" vertex="1">
          <mxGeometry y="300" width="300" height="30" as="geometry" />
        </mxCell>
        <mxCell id="gIX4ZdvpRPkXEoyVLq0K-153" value="string" style="shape=partialRectangle;connectable=0;fillColor=none;top=0;left=0;bottom=0;right=0;editable=1;overflow=hidden;whiteSpace=wrap;html=1;fontFamily=Hack Nerd Font;labelBackgroundColor=none;rounded=1;strokeColor=#D0CEE2;fontColor=#1A1A1A;" parent="gIX4ZdvpRPkXEoyVLq0K-152" vertex="1">
          <mxGeometry width="80" height="30" as="geometry">
            <mxRectangle width="80" height="30" as="alternateBounds" />
          </mxGeometry>
        </mxCell>
        <mxCell id="gIX4ZdvpRPkXEoyVLq0K-154" value="LoanType" style="shape=partialRectangle;connectable=0;fillColor=none;top=0;left=0;bottom=0;right=0;align=left;spacingLeft=6;overflow=hidden;whiteSpace=wrap;html=1;fontFamily=Hack Nerd Font;labelBackgroundColor=none;rounded=1;strokeColor=#D0CEE2;fontColor=#1A1A1A;" parent="gIX4ZdvpRPkXEoyVLq0K-152" vertex="1">
          <mxGeometry x="80" width="220" height="30" as="geometry">
            <mxRectangle width="220" height="30" as="alternateBounds" />
          </mxGeometry>
        </mxCell>
        <mxCell id="gIX4ZdvpRPkXEoyVLq0K-155" value="&lt;div&gt;&lt;span style=&quot;background-color: initial;&quot;&gt;LoanRequest&lt;/span&gt;&lt;/div&gt;" style="shape=table;startSize=30;container=1;collapsible=1;childLayout=tableLayout;fixedRows=1;rowLines=0;fontStyle=1;align=center;resizeLast=1;html=1;fontFamily=Hack Nerd Font;labelBackgroundColor=none;rounded=1;arcSize=0;fillColor=#5D7F99;strokeColor=#D0CEE2;fontColor=#1A1A1A;" parent="1" vertex="1">
          <mxGeometry x="-320" y="655" width="300" height="270" as="geometry" />
        </mxCell>
        <mxCell id="gIX4ZdvpRPkXEoyVLq0K-156" value="" style="shape=tableRow;horizontal=0;startSize=0;swimlaneHead=0;swimlaneBody=0;fillColor=none;collapsible=0;dropTarget=0;points=[[0,0.5],[1,0.5]];portConstraint=eastwest;top=0;left=0;right=0;bottom=1;fontFamily=Hack Nerd Font;labelBackgroundColor=none;rounded=1;strokeColor=#D0CEE2;fontColor=#1A1A1A;" parent="gIX4ZdvpRPkXEoyVLq0K-155" vertex="1">
          <mxGeometry y="30" width="300" height="30" as="geometry" />
        </mxCell>
        <mxCell id="gIX4ZdvpRPkXEoyVLq0K-157" value="&lt;u&gt;PK&lt;/u&gt;" style="shape=partialRectangle;connectable=0;fillColor=none;top=0;left=0;bottom=0;right=0;fontStyle=1;overflow=hidden;whiteSpace=wrap;html=1;fontFamily=Hack Nerd Font;labelBackgroundColor=none;rounded=1;strokeColor=#D0CEE2;fontColor=#1A1A1A;" parent="gIX4ZdvpRPkXEoyVLq0K-156" vertex="1">
          <mxGeometry width="80" height="30" as="geometry">
            <mxRectangle width="80" height="30" as="alternateBounds" />
          </mxGeometry>
        </mxCell>
        <mxCell id="gIX4ZdvpRPkXEoyVLq0K-158" value="Id" style="shape=partialRectangle;connectable=0;fillColor=none;top=0;left=0;bottom=0;right=0;align=left;spacingLeft=6;fontStyle=5;overflow=hidden;whiteSpace=wrap;html=1;fontFamily=Hack Nerd Font;labelBackgroundColor=none;rounded=1;strokeColor=#D0CEE2;fontColor=#1A1A1A;" parent="gIX4ZdvpRPkXEoyVLq0K-156" vertex="1">
          <mxGeometry x="80" width="220" height="30" as="geometry">
            <mxRectangle width="220" height="30" as="alternateBounds" />
          </mxGeometry>
        </mxCell>
        <mxCell id="gIX4ZdvpRPkXEoyVLq0K-159" value="" style="shape=tableRow;horizontal=0;startSize=0;swimlaneHead=0;swimlaneBody=0;fillColor=none;collapsible=0;dropTarget=0;points=[[0,0.5],[1,0.5]];portConstraint=eastwest;top=0;left=0;right=0;bottom=0;fontFamily=Hack Nerd Font;labelBackgroundColor=none;rounded=1;strokeColor=#D0CEE2;fontColor=#1A1A1A;" parent="gIX4ZdvpRPkXEoyVLq0K-155" vertex="1">
          <mxGeometry y="60" width="300" height="30" as="geometry" />
        </mxCell>
        <mxCell id="gIX4ZdvpRPkXEoyVLq0K-160" value="&lt;b&gt;&lt;u&gt;FK&lt;/u&gt;&lt;/b&gt;" style="shape=partialRectangle;connectable=0;fillColor=none;top=0;left=0;bottom=1;right=0;editable=1;overflow=hidden;whiteSpace=wrap;html=1;fontFamily=Hack Nerd Font;labelBackgroundColor=none;rounded=1;strokeColor=#D0CEE2;fontColor=#1A1A1A;" parent="gIX4ZdvpRPkXEoyVLq0K-159" vertex="1">
          <mxGeometry width="80" height="30" as="geometry">
            <mxRectangle width="80" height="30" as="alternateBounds" />
          </mxGeometry>
        </mxCell>
        <mxCell id="gIX4ZdvpRPkXEoyVLq0K-161" value="&lt;b&gt;&lt;u&gt;CustomerId&lt;/u&gt;&lt;/b&gt;" style="shape=partialRectangle;connectable=0;fillColor=none;top=0;left=0;bottom=1;right=0;align=left;spacingLeft=6;overflow=hidden;whiteSpace=wrap;html=1;fontFamily=Hack Nerd Font;labelBackgroundColor=none;rounded=1;strokeColor=#D0CEE2;fontColor=#1A1A1A;" parent="gIX4ZdvpRPkXEoyVLq0K-159" vertex="1">
          <mxGeometry x="80" width="220" height="30" as="geometry">
            <mxRectangle width="220" height="30" as="alternateBounds" />
          </mxGeometry>
        </mxCell>
        <mxCell id="gIX4ZdvpRPkXEoyVLq0K-162" value="" style="shape=tableRow;horizontal=0;startSize=0;swimlaneHead=0;swimlaneBody=0;fillColor=none;collapsible=0;dropTarget=0;points=[[0,0.5],[1,0.5]];portConstraint=eastwest;top=0;left=0;right=0;bottom=0;fontFamily=Hack Nerd Font;labelBackgroundColor=none;rounded=1;strokeColor=#D0CEE2;fontColor=#1A1A1A;" parent="gIX4ZdvpRPkXEoyVLq0K-155" vertex="1">
          <mxGeometry y="90" width="300" height="30" as="geometry" />
        </mxCell>
        <mxCell id="gIX4ZdvpRPkXEoyVLq0K-163" value="&lt;b&gt;&lt;u&gt;FK&lt;/u&gt;&lt;/b&gt;" style="shape=partialRectangle;connectable=0;fillColor=none;top=0;left=0;bottom=1;right=0;editable=1;overflow=hidden;whiteSpace=wrap;html=1;fontFamily=Hack Nerd Font;labelBackgroundColor=none;rounded=1;strokeColor=#D0CEE2;fontColor=#1A1A1A;" parent="gIX4ZdvpRPkXEoyVLq0K-162" vertex="1">
          <mxGeometry width="80" height="30" as="geometry">
            <mxRectangle width="80" height="30" as="alternateBounds" />
          </mxGeometry>
        </mxCell>
        <mxCell id="gIX4ZdvpRPkXEoyVLq0K-164" value="&lt;b&gt;&lt;u&gt;TermInterestRateId&lt;/u&gt;&lt;/b&gt;" style="shape=partialRectangle;connectable=0;fillColor=none;top=0;left=0;bottom=1;right=0;align=left;spacingLeft=6;overflow=hidden;whiteSpace=wrap;html=1;fontFamily=Hack Nerd Font;labelBackgroundColor=none;rounded=1;strokeColor=#D0CEE2;fontColor=#1A1A1A;" parent="gIX4ZdvpRPkXEoyVLq0K-162" vertex="1">
          <mxGeometry x="80" width="220" height="30" as="geometry">
            <mxRectangle width="220" height="30" as="alternateBounds" />
          </mxGeometry>
        </mxCell>
        <mxCell id="gIX4ZdvpRPkXEoyVLq0K-165" value="" style="shape=tableRow;horizontal=0;startSize=0;swimlaneHead=0;swimlaneBody=0;fillColor=none;collapsible=0;dropTarget=0;points=[[0,0.5],[1,0.5]];portConstraint=eastwest;top=0;left=0;right=0;bottom=0;fontFamily=Hack Nerd Font;labelBackgroundColor=none;rounded=1;strokeColor=#D0CEE2;fontColor=#1A1A1A;" parent="gIX4ZdvpRPkXEoyVLq0K-155" vertex="1">
          <mxGeometry y="120" width="300" height="30" as="geometry" />
        </mxCell>
        <mxCell id="gIX4ZdvpRPkXEoyVLq0K-166" value="string" style="shape=partialRectangle;connectable=0;fillColor=none;top=0;left=0;bottom=0;right=0;editable=1;overflow=hidden;whiteSpace=wrap;html=1;fontFamily=Hack Nerd Font;labelBackgroundColor=none;rounded=1;strokeColor=#D0CEE2;fontColor=#1A1A1A;" parent="gIX4ZdvpRPkXEoyVLq0K-165" vertex="1">
          <mxGeometry width="80" height="30" as="geometry">
            <mxRectangle width="80" height="30" as="alternateBounds" />
          </mxGeometry>
        </mxCell>
        <mxCell id="gIX4ZdvpRPkXEoyVLq0K-167" value="LoanType" style="shape=partialRectangle;connectable=0;fillColor=none;top=0;left=0;bottom=0;right=0;align=left;spacingLeft=6;overflow=hidden;whiteSpace=wrap;html=1;fontFamily=Hack Nerd Font;labelBackgroundColor=none;rounded=1;strokeColor=#D0CEE2;fontColor=#1A1A1A;" parent="gIX4ZdvpRPkXEoyVLq0K-165" vertex="1">
          <mxGeometry x="80" width="220" height="30" as="geometry">
            <mxRectangle width="220" height="30" as="alternateBounds" />
          </mxGeometry>
        </mxCell>
        <mxCell id="pULcvPwTSCyIzD-peDKf-12" style="shape=tableRow;horizontal=0;startSize=0;swimlaneHead=0;swimlaneBody=0;fillColor=none;collapsible=0;dropTarget=0;points=[[0,0.5],[1,0.5]];portConstraint=eastwest;top=0;left=0;right=0;bottom=0;fontFamily=Hack Nerd Font;labelBackgroundColor=none;rounded=1;strokeColor=#D0CEE2;fontColor=#1A1A1A;" parent="gIX4ZdvpRPkXEoyVLq0K-155" vertex="1">
          <mxGeometry y="150" width="300" height="30" as="geometry" />
        </mxCell>
        <mxCell id="pULcvPwTSCyIzD-peDKf-13" value="ushort" style="shape=partialRectangle;connectable=0;fillColor=none;top=0;left=0;bottom=0;right=0;editable=1;overflow=hidden;whiteSpace=wrap;html=1;fontFamily=Hack Nerd Font;labelBackgroundColor=none;rounded=1;strokeColor=#D0CEE2;fontColor=#1A1A1A;" parent="pULcvPwTSCyIzD-peDKf-12" vertex="1">
          <mxGeometry width="80" height="30" as="geometry">
            <mxRectangle width="80" height="30" as="alternateBounds" />
          </mxGeometry>
        </mxCell>
        <mxCell id="pULcvPwTSCyIzD-peDKf-14" value="Months" style="shape=partialRectangle;connectable=0;fillColor=none;top=0;left=0;bottom=0;right=0;align=left;spacingLeft=6;overflow=hidden;whiteSpace=wrap;html=1;fontFamily=Hack Nerd Font;labelBackgroundColor=none;rounded=1;strokeColor=#D0CEE2;fontColor=#1A1A1A;" parent="pULcvPwTSCyIzD-peDKf-12" vertex="1">
          <mxGeometry x="80" width="220" height="30" as="geometry">
            <mxRectangle width="220" height="30" as="alternateBounds" />
          </mxGeometry>
        </mxCell>
        <mxCell id="gIX4ZdvpRPkXEoyVLq0K-168" style="shape=tableRow;horizontal=0;startSize=0;swimlaneHead=0;swimlaneBody=0;fillColor=none;collapsible=0;dropTarget=0;points=[[0,0.5],[1,0.5]];portConstraint=eastwest;top=0;left=0;right=0;bottom=0;fontFamily=Hack Nerd Font;labelBackgroundColor=none;rounded=1;strokeColor=#D0CEE2;fontColor=#1A1A1A;" parent="gIX4ZdvpRPkXEoyVLq0K-155" vertex="1">
          <mxGeometry y="180" width="300" height="30" as="geometry" />
        </mxCell>
        <mxCell id="gIX4ZdvpRPkXEoyVLq0K-169" value="decimal" style="shape=partialRectangle;connectable=0;fillColor=none;top=0;left=0;bottom=0;right=0;editable=1;overflow=hidden;whiteSpace=wrap;html=1;fontFamily=Hack Nerd Font;labelBackgroundColor=none;rounded=1;strokeColor=#D0CEE2;fontColor=#1A1A1A;" parent="gIX4ZdvpRPkXEoyVLq0K-168" vertex="1">
          <mxGeometry width="80" height="30" as="geometry">
            <mxRectangle width="80" height="30" as="alternateBounds" />
          </mxGeometry>
        </mxCell>
        <mxCell id="gIX4ZdvpRPkXEoyVLq0K-170" value="Amount" style="shape=partialRectangle;connectable=0;fillColor=none;top=0;left=0;bottom=0;right=0;align=left;spacingLeft=6;overflow=hidden;whiteSpace=wrap;html=1;fontFamily=Hack Nerd Font;labelBackgroundColor=none;rounded=1;strokeColor=#D0CEE2;fontColor=#1A1A1A;" parent="gIX4ZdvpRPkXEoyVLq0K-168" vertex="1">
          <mxGeometry x="80" width="220" height="30" as="geometry">
            <mxRectangle width="220" height="30" as="alternateBounds" />
          </mxGeometry>
        </mxCell>
        <mxCell id="pULcvPwTSCyIzD-peDKf-25" style="shape=tableRow;horizontal=0;startSize=0;swimlaneHead=0;swimlaneBody=0;fillColor=none;collapsible=0;dropTarget=0;points=[[0,0.5],[1,0.5]];portConstraint=eastwest;top=0;left=0;right=0;bottom=0;fontFamily=Hack Nerd Font;labelBackgroundColor=none;rounded=1;strokeColor=#D0CEE2;fontColor=#1A1A1A;" parent="gIX4ZdvpRPkXEoyVLq0K-155" vertex="1">
          <mxGeometry y="210" width="300" height="30" as="geometry" />
        </mxCell>
        <mxCell id="pULcvPwTSCyIzD-peDKf-26" value="DateTime" style="shape=partialRectangle;connectable=0;fillColor=none;top=0;left=0;bottom=0;right=0;editable=1;overflow=hidden;whiteSpace=wrap;html=1;fontFamily=Hack Nerd Font;labelBackgroundColor=none;rounded=1;strokeColor=#D0CEE2;fontColor=#1A1A1A;" parent="pULcvPwTSCyIzD-peDKf-25" vertex="1">
          <mxGeometry width="80" height="30" as="geometry">
            <mxRectangle width="80" height="30" as="alternateBounds" />
          </mxGeometry>
        </mxCell>
        <mxCell id="pULcvPwTSCyIzD-peDKf-27" value="RequestDate" style="shape=partialRectangle;connectable=0;fillColor=none;top=0;left=0;bottom=0;right=0;align=left;spacingLeft=6;overflow=hidden;whiteSpace=wrap;html=1;fontFamily=Hack Nerd Font;labelBackgroundColor=none;rounded=1;strokeColor=#D0CEE2;fontColor=#1A1A1A;" parent="pULcvPwTSCyIzD-peDKf-25" vertex="1">
          <mxGeometry x="80" width="220" height="30" as="geometry">
            <mxRectangle width="220" height="30" as="alternateBounds" />
          </mxGeometry>
        </mxCell>
        <mxCell id="gIX4ZdvpRPkXEoyVLq0K-171" style="shape=tableRow;horizontal=0;startSize=0;swimlaneHead=0;swimlaneBody=0;fillColor=none;collapsible=0;dropTarget=0;points=[[0,0.5],[1,0.5]];portConstraint=eastwest;top=0;left=0;right=0;bottom=0;fontFamily=Hack Nerd Font;labelBackgroundColor=none;rounded=1;strokeColor=#D0CEE2;fontColor=#1A1A1A;" parent="gIX4ZdvpRPkXEoyVLq0K-155" vertex="1">
          <mxGeometry y="240" width="300" height="30" as="geometry" />
        </mxCell>
        <mxCell id="gIX4ZdvpRPkXEoyVLq0K-172" value="string" style="shape=partialRectangle;connectable=0;fillColor=none;top=0;left=0;bottom=0;right=0;editable=1;overflow=hidden;whiteSpace=wrap;html=1;fontFamily=Hack Nerd Font;labelBackgroundColor=none;rounded=1;strokeColor=#D0CEE2;fontColor=#1A1A1A;" parent="gIX4ZdvpRPkXEoyVLq0K-171" vertex="1">
          <mxGeometry width="80" height="30" as="geometry">
            <mxRectangle width="80" height="30" as="alternateBounds" />
          </mxGeometry>
        </mxCell>
        <mxCell id="gIX4ZdvpRPkXEoyVLq0K-173" value="Status" style="shape=partialRectangle;connectable=0;fillColor=none;top=0;left=0;bottom=0;right=0;align=left;spacingLeft=6;overflow=hidden;whiteSpace=wrap;html=1;fontFamily=Hack Nerd Font;labelBackgroundColor=none;rounded=1;strokeColor=#D0CEE2;fontColor=#1A1A1A;" parent="gIX4ZdvpRPkXEoyVLq0K-171" vertex="1">
          <mxGeometry x="80" width="220" height="30" as="geometry">
            <mxRectangle width="220" height="30" as="alternateBounds" />
          </mxGeometry>
        </mxCell>
        <mxCell id="gIX4ZdvpRPkXEoyVLq0K-197" value="&lt;font face=&quot;Hack Nerd Font&quot;&gt;&lt;b&gt;&lt;i&gt;Plazo y Tasa de InterÃ©s&lt;/i&gt;&lt;/b&gt;&lt;/font&gt;" style="rounded=1;whiteSpace=wrap;html=1;labelBackgroundColor=none;arcSize=0;fillColor=#5D7F99;strokeColor=#D0CEE2;fontColor=#1A1A1A;" parent="1" vertex="1">
          <mxGeometry x="110" y="337" width="300" height="30" as="geometry" />
        </mxCell>
        <mxCell id="gIX4ZdvpRPkXEoyVLq0K-198" value="&lt;font face=&quot;Hack Nerd Font&quot;&gt;&lt;b&gt;&lt;i&gt;Solicitudes de PrÃ©stamos&lt;/i&gt;&lt;/b&gt;&lt;/font&gt;" style="rounded=1;whiteSpace=wrap;html=1;labelBackgroundColor=none;arcSize=0;fillColor=#5D7F99;strokeColor=#D0CEE2;fontColor=#1A1A1A;" parent="1" vertex="1">
          <mxGeometry x="-320" y="925" width="300" height="30" as="geometry" />
        </mxCell>
        <mxCell id="gIX4ZdvpRPkXEoyVLq0K-199" value="&lt;font face=&quot;Hack Nerd Font&quot;&gt;&lt;b&gt;&lt;i&gt;PrÃ©stamos Aprobados&lt;/i&gt;&lt;/b&gt;&lt;/font&gt;" style="rounded=1;whiteSpace=wrap;html=1;labelBackgroundColor=none;arcSize=0;fillColor=#5D7F99;strokeColor=#D0CEE2;fontColor=#1A1A1A;" parent="1" vertex="1">
          <mxGeometry x="110" y="860" width="300" height="30" as="geometry" />
        </mxCell>
        <mxCell id="gIX4ZdvpRPkXEoyVLq0K-200" value="&lt;font face=&quot;Hack Nerd Font&quot;&gt;&lt;b&gt;&lt;i&gt;Pago de Cuotas&lt;/i&gt;&lt;/b&gt;&lt;/font&gt;" style="rounded=1;whiteSpace=wrap;html=1;labelBackgroundColor=none;arcSize=0;fillColor=#5D7F99;strokeColor=#D0CEE2;fontColor=#1A1A1A;" parent="1" vertex="1">
          <mxGeometry x="-723" y="200" width="300" height="30" as="geometry" />
        </mxCell>
        <mxCell id="gIX4ZdvpRPkXEoyVLq0K-201" value="&lt;font face=&quot;Hack Nerd Font&quot;&gt;&lt;b&gt;&lt;i&gt;Cuotas&lt;/i&gt;&lt;/b&gt;&lt;/font&gt;" style="rounded=1;whiteSpace=wrap;html=1;labelBackgroundColor=none;arcSize=0;fillColor=#5D7F99;strokeColor=#D0CEE2;fontColor=#1A1A1A;" parent="1" vertex="1">
          <mxGeometry x="490" y="500" width="300" height="30" as="geometry" />
        </mxCell>
        <mxCell id="gIX4ZdvpRPkXEoyVLq0K-202" value="&lt;font face=&quot;Hack Nerd Font&quot;&gt;&lt;b&gt;&lt;i&gt;Cliente&lt;/i&gt;&lt;/b&gt;&lt;/font&gt;" style="rounded=1;whiteSpace=wrap;html=1;labelBackgroundColor=none;arcSize=0;fillColor=#5D7F99;strokeColor=#D0CEE2;fontColor=#1A1A1A;" parent="1" vertex="1">
          <mxGeometry x="-723" y="445" width="300" height="30" as="geometry" />
        </mxCell>
        <mxCell id="pULcvPwTSCyIzD-peDKf-2" value="" style="edgeStyle=orthogonalEdgeStyle;fontSize=12;html=1;endArrow=ERoneToMany;rounded=0;exitX=1;exitY=0.5;exitDx=0;exitDy=0;entryX=0;entryY=0.5;entryDx=0;entryDy=0;labelBackgroundColor=none;fontColor=default;strokeColor=#736CA8;" parent="1" source="pULcvPwTSCyIzD-peDKf-18" target="gIX4ZdvpRPkXEoyVLq0K-143" edge="1">
          <mxGeometry width="100" height="100" relative="1" as="geometry">
            <mxPoint x="-47" y="638" as="sourcePoint" />
            <mxPoint x="53" y="538" as="targetPoint" />
            <Array as="points">
              <mxPoint x="-365" y="550" />
              <mxPoint x="-365" y="635" />
            </Array>
          </mxGeometry>
        </mxCell>
        <mxCell id="pULcvPwTSCyIzD-peDKf-4" value="" style="edgeStyle=orthogonalEdgeStyle;fontSize=12;html=1;endArrow=ERmandOne;startArrow=ERmandOne;rounded=0;entryX=0;entryY=0.5;entryDx=0;entryDy=0;exitX=1;exitY=0.5;exitDx=0;exitDy=0;labelBackgroundColor=none;fontColor=default;strokeColor=#736CA8;" parent="1" source="gIX4ZdvpRPkXEoyVLq0K-156" target="gIX4ZdvpRPkXEoyVLq0K-131" edge="1">
          <mxGeometry width="100" height="100" relative="1" as="geometry">
            <mxPoint x="8" y="822" as="sourcePoint" />
            <mxPoint x="108" y="722" as="targetPoint" />
            <Array as="points">
              <mxPoint x="77" y="700" />
              <mxPoint x="77" y="605" />
            </Array>
          </mxGeometry>
        </mxCell>
        <mxCell id="pULcvPwTSCyIzD-peDKf-8" value="" style="edgeStyle=orthogonalEdgeStyle;fontSize=12;html=1;endArrow=ERoneToMany;rounded=0;entryX=1;entryY=0.5;entryDx=0;entryDy=0;exitX=0;exitY=0.5;exitDx=0;exitDy=0;labelBackgroundColor=none;fontColor=default;strokeColor=#736CA8;" parent="1" source="pULcvPwTSCyIzD-peDKf-28" target="gIX4ZdvpRPkXEoyVLq0K-65" edge="1">
          <mxGeometry width="100" height="100" relative="1" as="geometry">
            <mxPoint x="-196" y="320" as="sourcePoint" />
            <mxPoint x="-96" y="220" as="targetPoint" />
            <Array as="points">
              <mxPoint x="455" y="635" />
              <mxPoint x="455" y="305" />
            </Array>
          </mxGeometry>
        </mxCell>
        <mxCell id="pULcvPwTSCyIzD-peDKf-21" value="" style="edgeStyle=orthogonalEdgeStyle;fontSize=12;html=1;endArrow=ERoneToMany;rounded=0;entryX=0;entryY=0.5;entryDx=0;entryDy=0;exitX=1;exitY=0.5;exitDx=0;exitDy=0;labelBackgroundColor=none;fontColor=default;strokeColor=#736CA8;" parent="1" source="pULcvPwTSCyIzD-peDKf-15" target="gIX4ZdvpRPkXEoyVLq0K-159" edge="1">
          <mxGeometry width="100" height="100" relative="1" as="geometry">
            <mxPoint x="-448" y="850" as="sourcePoint" />
            <mxPoint x="-348" y="750" as="targetPoint" />
            <Array as="points">
              <mxPoint x="-388" y="580" />
              <mxPoint x="-388" y="730" />
            </Array>
          </mxGeometry>
        </mxCell>
        <mxCell id="pULcvPwTSCyIzD-peDKf-40" value="" style="edgeStyle=orthogonalEdgeStyle;fontSize=12;html=1;endArrow=ERoneToMany;rounded=0;exitX=0;exitY=0.5;exitDx=0;exitDy=0;entryX=1;entryY=0.5;entryDx=0;entryDy=0;labelBackgroundColor=none;strokeColor=#736CA8;fontColor=default;" parent="1" source="pULcvPwTSCyIzD-peDKf-36" target="gIX4ZdvpRPkXEoyVLq0K-162" edge="1">
          <mxGeometry width="100" height="100" relative="1" as="geometry">
            <mxPoint x="-137" y="654" as="sourcePoint" />
            <mxPoint x="-37" y="554" as="targetPoint" />
          </mxGeometry>
        </mxCell>
        <mxCell id="pULcvPwTSCyIzD-peDKf-41" value="&lt;font face=&quot;Mononoki Nerd Font Mono&quot;&gt;1&lt;/font&gt;" style="text;html=1;align=center;verticalAlign=middle;whiteSpace=wrap;rounded=0;fontColor=#1A1A1A;" parent="1" vertex="1">
          <mxGeometry x="-429" y="563" width="28" height="17" as="geometry" />
        </mxCell>
        <mxCell id="pULcvPwTSCyIzD-peDKf-42" value="&lt;font face=&quot;Mononoki Nerd Font Mono&quot;&gt;N&lt;/font&gt;" style="text;html=1;align=center;verticalAlign=middle;whiteSpace=wrap;rounded=0;fontColor=#1A1A1A;" parent="1" vertex="1">
          <mxGeometry x="-352" y="713" width="28" height="17" as="geometry" />
        </mxCell>
        <mxCell id="pULcvPwTSCyIzD-peDKf-43" value="&lt;font face=&quot;Mononoki Nerd Font Mono&quot;&gt;1&lt;/font&gt;" style="text;html=1;align=center;verticalAlign=middle;whiteSpace=wrap;rounded=0;fontColor=#1A1A1A;" parent="1" vertex="1">
          <mxGeometry x="-429" y="532" width="28" height="17" as="geometry" />
        </mxCell>
        <mxCell id="pULcvPwTSCyIzD-peDKf-44" value="&lt;font face=&quot;Mononoki Nerd Font Mono&quot;&gt;1&lt;/font&gt;" style="text;html=1;align=center;verticalAlign=middle;whiteSpace=wrap;rounded=0;fontColor=#1A1A1A;" parent="1" vertex="1">
          <mxGeometry x="89" y="426" width="28" height="17" as="geometry" />
        </mxCell>
        <mxCell id="pULcvPwTSCyIzD-peDKf-45" value="&lt;font face=&quot;Mononoki Nerd Font Mono&quot;&gt;1&lt;/font&gt;" style="text;html=1;align=center;verticalAlign=middle;whiteSpace=wrap;rounded=0;fontColor=#1A1A1A;" parent="1" vertex="1">
          <mxGeometry x="89" y="584" width="28" height="17" as="geometry" />
        </mxCell>
        <mxCell id="pULcvPwTSCyIzD-peDKf-46" value="&lt;font face=&quot;Mononoki Nerd Font Mono&quot;&gt;1&lt;/font&gt;" style="text;html=1;align=center;verticalAlign=middle;whiteSpace=wrap;rounded=0;fontColor=#1A1A1A;" parent="1" vertex="1">
          <mxGeometry x="-19" y="683" width="28" height="17" as="geometry" />
        </mxCell>
        <mxCell id="pULcvPwTSCyIzD-peDKf-47" value="&lt;font face=&quot;Mononoki Nerd Font Mono&quot;&gt;N&lt;/font&gt;" style="text;html=1;align=center;verticalAlign=middle;whiteSpace=wrap;rounded=0;fontColor=#1A1A1A;" parent="1" vertex="1">
          <mxGeometry x="-19" y="744" width="28" height="17" as="geometry" />
        </mxCell>
        <mxCell id="pULcvPwTSCyIzD-peDKf-48" value="&lt;font face=&quot;Mononoki Nerd Font Mono&quot;&gt;N&lt;/font&gt;" style="text;html=1;align=center;verticalAlign=middle;whiteSpace=wrap;rounded=0;fontColor=#1A1A1A;" parent="1" vertex="1">
          <mxGeometry x="88" y="638" width="28" height="17" as="geometry" />
        </mxCell>
        <mxCell id="pULcvPwTSCyIzD-peDKf-49" value="&lt;font face=&quot;Mononoki Nerd Font Mono&quot;&gt;N&lt;/font&gt;" style="text;html=1;align=center;verticalAlign=middle;whiteSpace=wrap;rounded=0;fontColor=#1A1A1A;" parent="1" vertex="1">
          <mxGeometry x="-427" y="282" width="28" height="17" as="geometry" />
        </mxCell>
        <mxCell id="pULcvPwTSCyIzD-peDKf-50" value="&lt;font face=&quot;Mononoki Nerd Font Mono&quot;&gt;1&lt;/font&gt;" style="text;html=1;align=center;verticalAlign=middle;whiteSpace=wrap;rounded=0;fontColor=#1A1A1A;" parent="1" vertex="1">
          <mxGeometry x="404" y="648" width="28" height="17" as="geometry" />
        </mxCell>
        <mxCell id="pULcvPwTSCyIzD-peDKf-51" value="&lt;font face=&quot;Mononoki Nerd Font Mono&quot;&gt;1&lt;/font&gt;" style="text;html=1;align=center;verticalAlign=middle;whiteSpace=wrap;rounded=0;fontColor=#1A1A1A;" parent="1" vertex="1">
          <mxGeometry x="466" y="618" width="28" height="17" as="geometry" />
        </mxCell>
        <mxCell id="pULcvPwTSCyIzD-peDKf-52" value="" style="edgeStyle=orthogonalEdgeStyle;fontSize=12;html=1;endArrow=ERoneToMany;rounded=0;strokeColor=#736CA8;fontColor=#1A1A1A;exitX=1;exitY=0.5;exitDx=0;exitDy=0;entryX=0;entryY=0.5;entryDx=0;entryDy=0;" parent="1" source="pULcvPwTSCyIzD-peDKf-32" target="gIX4ZdvpRPkXEoyVLq0K-90" edge="1">
          <mxGeometry width="100" height="100" relative="1" as="geometry">
            <mxPoint x="374" y="664" as="sourcePoint" />
            <mxPoint x="474" y="564" as="targetPoint" />
            <Array as="points">
              <mxPoint x="441" y="665" />
              <mxPoint x="441" y="605" />
            </Array>
          </mxGeometry>
        </mxCell>
        <mxCell id="pULcvPwTSCyIzD-peDKf-53" value="&lt;font face=&quot;Mononoki Nerd Font Mono&quot;&gt;N&lt;/font&gt;" style="text;html=1;align=center;verticalAlign=middle;whiteSpace=wrap;rounded=0;fontColor=#1A1A1A;" parent="1" vertex="1">
          <mxGeometry x="466" y="585" width="28" height="17" as="geometry" />
        </mxCell>
      </root>
    </mxGraphModel>
  </diagram>
</mxfile>
